<svg version="1.1" xmlns="http://www.w3.org/2000/svg" viewBox="0 0 1800 1020" width="3600" height="2040">
  <!-- svg-source:excalidraw -->
  
  <defs>
    <style>
      @font-face {
        font-family: "Virgil";
        src: url("https://excalidraw.com/Virgil.woff2");
      }
      @font-face {
        font-family: "Cascadia";
        src: url("https://excalidraw.com/Cascadia.woff2");
      }
    </style>
  </defs>
  <rect x="0" y="0" width="1800" height="1020" fill="transparent"></rect><g stroke-linecap="round" transform="translate(10 10) rotate(0 890 500)"><path d="M0 0 L1780 0 L1780 1000 L0 1000" stroke="none" stroke-width="0" fill="#fff"></path><path d="M0 0 C612.67 0, 1225.35 0, 1780 0 M0 0 C563.15 0, 1126.3 0, 1780 0 M1780 0 C1780 283.44, 1780 566.88, 1780 1000 M1780 0 C1780 202.53, 1780 405.06, 1780 1000 M1780 1000 C1228.93 1000, 677.86 1000, 0 1000 M1780 1000 C1094.46 1000, 408.93 1000, 0 1000 M0 1000 C0 719.59, 0 439.17, 0 0 M0 1000 C0 660.91, 0 321.82, 0 0" stroke="#7fabf7" stroke-width="4" fill="none"></path></g><g stroke-linecap="round" transform="translate(1310 250) rotate(0 210 92.54237288135596)"><path d="M46.27 0 L373.73 0 L389.45 1.63 L398.13 4.52 L401.93 6.51 L408.43 11.57 L413.49 18.07 L417.11 26.03 L419.28 35.43 L420 46.27 L420 138.81 L419.28 149.66 L415.48 163.21 L411.14 170.44 L408.43 173.52 L401.93 178.58 L393.97 182.19 L379.33 184.9 L46.27 185.08 L30.55 183.46 L21.87 180.57 L14.64 176.23 L8.86 170.44 L2.89 159.06 L0.72 149.66 L0 138.81 L0 46.27 L0.72 35.43 L2.89 26.03 L6.51 18.07 L8.86 14.64 L14.64 8.86 L26.03 2.89 L35.43 0.72 L46.27 0" stroke="none" stroke-width="0" fill="#FFF"></path><path d="M46.27 0 M46.27 0 C152.28 0, 258.29 0, 373.73 0 M46.27 0 C136.48 0, 226.7 0, 373.73 0 M373.73 0 C404.58 0, 420 15.42, 420 46.27 M373.73 0 C404.58 0, 420 15.42, 420 46.27 M420 46.27 C420 83, 420 119.72, 420 138.81 M420 46.27 C420 71.84, 420 97.41, 420 138.81 M420 138.81 C420 169.66, 404.58 185.08, 373.73 185.08 M420 138.81 C420 169.66, 404.58 185.08, 373.73 185.08 M373.73 185.08 C279.59 185.08, 185.46 185.08, 46.27 185.08 M373.73 185.08 C295.56 185.08, 217.39 185.08, 46.27 185.08 M46.27 185.08 C15.42 185.08, 0 169.66, 0 138.81 M46.27 185.08 C15.42 185.08, 0 169.66, 0 138.81 M0 138.81 C0 112.6, 0 86.39, 0 46.27 M0 138.81 C0 112.13, 0 85.44, 0 46.27 M0 46.27 C0 15.42, 15.42 0, 46.27 0 M0 46.27 C0 15.42, 15.42 0, 46.27 0" stroke="#4285f4" stroke-width="2" fill="none"></path></g><g transform="translate(1453.954802259887 270.56497175141243) rotate(0 64.06779661016947 18.983050847457633)"><text x="0" y="30.966101694915253" font-family="Helvetica, Segoe UI Emoji" font-size="28.47457627118644px" fill="#000000" text-anchor="start" style="white-space: pre;" direction="ltr">Cloud SQL</text></g><g transform="translate(1452.372881355932 319.92090395480227) rotate(0 70 42.5)"><text x="0" y="13" font-family="Helvetica, Segoe UI Emoji" font-size="16.451977401129948px" fill="#495057" text-anchor="start" style="white-space: pre;" direction="ltr">- MySQL 8</text><text x="0" y="30" font-family="Helvetica, Segoe UI Emoji" font-size="16.451977401129948px" fill="#495057" text-anchor="start" style="white-space: pre;" direction="ltr">- db-f1-micro</text><text x="0" y="47" font-family="Helvetica, Segoe UI Emoji" font-size="16.451977401129948px" fill="#495057" text-anchor="start" style="white-space: pre;" direction="ltr">- 1 vCPU</text><text x="0" y="64" font-family="Helvetica, Segoe UI Emoji" font-size="16.451977401129948px" fill="#495057" text-anchor="start" style="white-space: pre;" direction="ltr">- Mem.: 628,74 MB</text><text x="0" y="81" font-family="Helvetica, Segoe UI Emoji" font-size="16.451977401129948px" fill="#495057" text-anchor="start" style="white-space: pre;" direction="ltr">- 10 GB</text></g><g stroke-linecap="round"><g transform="translate(1361.7535322803565 337.1440664388364) rotate(0 12.682555893720178 11.955863015126383)" fill-rule="evenodd"><path d="M0 0 L0 10.42 L25.37 23.91 L25.37 13.5 L0 0 L0 0" stroke="none" stroke-width="0" fill="#aecbfa" fill-rule="evenodd"></path><path d="M0 0 C0 3.34, 0 6.69, 0 10.42 M0 0 C0 3.19, 0 6.38, 0 10.42 M0 10.42 C7.09 14.19, 14.18 17.96, 25.37 23.91 M0 10.42 C7.04 14.16, 14.09 17.91, 25.37 23.91 M25.37 23.91 C25.37 20.08, 25.37 16.25, 25.37 13.5 M25.37 23.91 C25.37 20.26, 25.37 16.61, 25.37 13.5 M25.37 13.5 C16.32 8.68, 7.28 3.87, 0 0 M25.37 13.5 C19.14 10.18, 12.91 6.87, 0 0 M0 0 C0 0, 0 0, 0 0 M0 0 C0 0, 0 0, 0 0 M0 0 C0 0, 0 0, 0 0 M0 0 C0 0, 0 0, 0 0" stroke="#00000000" stroke-width="1" fill="none"></path></g></g><g stroke-linecap="round"><g transform="translate(1361.7535322803565 353.23517039670776) rotate(0 12.682555893720178 11.95586414660437)" fill-rule="evenodd"><path d="M0 0 L0 10.42 L25.37 23.91 L25.37 13.5 L0 0 L0 0" stroke="none" stroke-width="0" fill="#aecbfa" fill-rule="evenodd"></path><path d="M0 0 C0 2.95, 0 5.9, 0 10.42 M0 0 C0 3.32, 0 6.63, 0 10.42 M0 10.42 C9.5 15.47, 18.99 20.52, 25.37 23.91 M0 10.42 C6.6 13.93, 13.2 17.44, 25.37 23.91 M25.37 23.91 C25.37 20.84, 25.37 17.76, 25.37 13.5 M25.37 23.91 C25.37 21.77, 25.37 19.63, 25.37 13.5 M25.37 13.5 C17.15 9.13, 8.94 4.76, 0 0 M25.37 13.5 C15.54 8.27, 5.72 3.04, 0 0 M0 0 C0 0, 0 0, 0 0 M0 0 C0 0, 0 0, 0 0 M0 0 C0 0, 0 0, 0 0 M0 0 C0 0, 0 0, 0 0" stroke="#00000000" stroke-width="1" fill="none"></path></g></g><g stroke-linecap="round"><g transform="translate(1387.1186440677961 361.05579246908906) rotate(0 12.682558156676237 -11.955863015126383)" fill-rule="evenodd"><path d="M0 0 L25.37 -13.5 L25.37 -23.91 L0 -10.42 L0 0 L0 0" stroke="none" stroke-width="0" fill="#669df6" fill-rule="evenodd"></path><path d="M0 0 C8.72 -4.64, 17.44 -9.28, 25.37 -13.5 M0 0 C5.3 -2.82, 10.59 -5.64, 25.37 -13.5 M25.37 -13.5 C25.37 -17.49, 25.37 -21.49, 25.37 -23.91 M25.37 -13.5 C25.37 -15.87, 25.37 -18.25, 25.37 -23.91 M25.37 -23.91 C15.35 -18.58, 5.34 -13.26, 0 -10.42 M25.37 -23.91 C17.06 -19.49, 8.75 -15.07, 0 -10.42 M0 -10.42 C0 -7.04, 0 -3.66, 0 0 M0 -10.42 C0 -8.27, 0 -6.13, 0 0 M0 0 C0 0, 0 0, 0 0 M0 0 C0 0, 0 0, 0 0 M0 0 C0 0, 0 0, 0 0 M0 0 C0 0, 0 0, 0 0" stroke="#00000000" stroke-width="1" fill="none"></path></g></g><g stroke-linecap="round"><g transform="translate(1387.1186440677961 377.1468986899166) rotate(0 12.682558156676237 -11.95586414660437)" fill-rule="evenodd"><path d="M0 0 L25.37 -13.5 L25.37 -23.91 L0 -10.42 L0 0 L0 0" stroke="none" stroke-width="0" fill="#669df6" fill-rule="evenodd"></path><path d="M0 0 C9.94 -5.29, 19.87 -10.57, 25.37 -13.5 M0 0 C6.49 -3.45, 12.97 -6.9, 25.37 -13.5 M25.37 -13.5 C25.37 -17.39, 25.37 -21.28, 25.37 -23.91 M25.37 -13.5 C25.37 -15.87, 25.37 -18.24, 25.37 -23.91 M25.37 -23.91 C19.75 -20.92, 14.13 -17.93, 0 -10.42 M25.37 -23.91 C18.79 -20.42, 12.22 -16.92, 0 -10.42 M0 -10.42 C0 -6.5, 0 -2.59, 0 0 M0 -10.42 C0 -6.87, 0 -3.32, 0 0 M0 0 C0 0, 0 0, 0 0 M0 0 C0 0, 0 0, 0 0 M0 0 C0 0, 0 0, 0 0 M0 0 C0 0, 0 0, 0 0" stroke="#00000000" stroke-width="1" fill="none"></path></g></g><g stroke-linecap="round"><g transform="translate(1412.4837603811486 331.84957762896) rotate(0 -12.682558156676237 -11.955862166517875)" fill-rule="evenodd"><path d="M0 0 L0 -10.42 L-25.37 -23.91 L-25.37 -13.5 L0 0 L0 0" stroke="none" stroke-width="0" fill="#4285f4" fill-rule="evenodd"></path><path d="M0 0 C0 -2.11, 0 -4.23, 0 -10.42 M0 0 C0 -4.14, 0 -8.29, 0 -10.42 M0 -10.42 C-9.86 -15.66, -19.71 -20.9, -25.37 -23.91 M0 -10.42 C-7.4 -14.35, -14.79 -18.29, -25.37 -23.91 M-25.37 -23.91 C-25.37 -20.22, -25.37 -16.53, -25.37 -13.5 M-25.37 -23.91 C-25.37 -20.37, -25.37 -16.83, -25.37 -13.5 M-25.37 -13.5 C-15.95 -8.48, -6.53 -3.47, 0 0 M-25.37 -13.5 C-17.16 -9.13, -8.95 -4.76, 0 0 M0 0 C0 0, 0 0, 0 0 M0 0 C0 0, 0 0, 0 0 M0 0 C0 0, 0 0, 0 0 M0 0 C0 0, 0 0, 0 0" stroke="#00000000" stroke-width="1" fill="none"></path></g></g><g stroke-linecap="round"><g transform="translate(1387.1186440677964 307.93785329592424) rotate(0 -12.682555893720178 11.955862166517875)" fill-rule="evenodd"><path d="M0 0 L-25.37 13.5 L-25.37 23.91 L0 10.42 L0 0 L0 0" stroke="none" stroke-width="0" fill="#669df6" fill-rule="evenodd"></path><path d="M0 0 C-8.56 4.55, -17.12 9.11, -25.37 13.5 M0 0 C-9.21 4.9, -18.42 9.8, -25.37 13.5 M-25.37 13.5 C-25.37 17.37, -25.37 21.25, -25.37 23.91 M-25.37 13.5 C-25.37 17.12, -25.37 20.75, -25.37 23.91 M-25.37 23.91 C-16.27 19.07, -7.17 14.23, 0 10.42 M-25.37 23.91 C-16.26 19.07, -7.16 14.23, 0 10.42 M0 10.42 C0 7.26, 0 4.11, 0 0 M0 10.42 C0 7.38, 0 4.34, 0 0 M0 0 C0 0, 0 0, 0 0 M0 0 C0 0, 0 0, 0 0 M0 0 C0 0, 0 0, 0 0 M0 0 C0 0, 0 0, 0 0" stroke="#00000000" stroke-width="1" fill="none"></path></g></g><g stroke-linecap="round"><g transform="translate(1361.7535322803565 321.329803466797) rotate(0 12.682555893720178 11.973164445262853)" fill-rule="evenodd"><path d="M0 0 L0 10.45 L25.37 23.95 L25.37 13.5 L0 0 L0 0" stroke="none" stroke-width="0" fill="#aecbfa" fill-rule="evenodd"></path><path d="M0 0 C0 3.79, 0 7.58, 0 10.45 M0 0 C0 3.92, 0 7.84, 0 10.45 M0 10.45 C9.48 15.49, 18.96 20.54, 25.37 23.95 M0 10.45 C8.79 15.13, 17.58 19.81, 25.37 23.95 M25.37 23.95 C25.37 19.95, 25.37 15.96, 25.37 13.5 M25.37 23.95 C25.37 20.25, 25.37 16.55, 25.37 13.5 M25.37 13.5 C19.56 10.41, 13.76 7.32, 0 0 M25.37 13.5 C18.73 9.97, 12.1 6.44, 0 0 M0 0 C0 0, 0 0, 0 0 M0 0 C0 0, 0 0, 0 0 M0 0 C0 0, 0 0, 0 0 M0 0 C0 0, 0 0, 0 0" stroke="#00000000" stroke-width="1" fill="none"></path></g></g><g stroke-linecap="round"><g transform="translate(1387.1186440677961 345.27613235732235) rotate(0 12.682558156676237 -11.973164445262853)" fill-rule="evenodd"><path d="M0 0 L25.37 -13.5 L25.37 -23.95 L0 -10.45 L0 0 L0 0" stroke="none" stroke-width="0" fill="#669df6" fill-rule="evenodd"></path><path d="M0 0 C8.02 -4.27, 16.05 -8.54, 25.37 -13.5 M0 0 C7.19 -3.83, 14.38 -7.65, 25.37 -13.5 M25.37 -13.5 C25.37 -15.61, 25.37 -17.73, 25.37 -23.95 M25.37 -13.5 C25.37 -16.73, 25.37 -19.97, 25.37 -23.95 M25.37 -23.95 C15.6 -18.75, 5.83 -13.55, 0 -10.45 M25.37 -23.95 C18.25 -20.16, 11.14 -16.38, 0 -10.45 M0 -10.45 C0 -6.91, 0 -3.36, 0 0 M0 -10.45 C0 -7.9, 0 -5.35, 0 0 M0 0 C0 0, 0 0, 0 0 M0 0 C0 0, 0 0, 0 0 M0 0 C0 0, 0 0, 0 0 M0 0 C0 0, 0 0, 0 0" stroke="#00000000" stroke-width="1" fill="none"></path></g></g><g stroke-linecap="round" transform="translate(1310 470) rotate(0 210 92.5423728813559)"><path d="M46.27 0 L373.73 0 L384.57 0.72 L398.13 4.52 L405.36 8.86 L408.43 11.57 L413.49 18.07 L417.11 26.03 L419.28 35.43 L420 46.27 L420 138.81 L419.28 149.66 L415.48 163.21 L413.49 167.01 L408.43 173.52 L401.93 178.58 L393.97 182.19 L379.33 184.9 L46.27 185.08 L30.55 183.46 L21.87 180.57 L18.07 178.58 L11.57 173.52 L6.51 167.01 L2.89 159.06 L0.72 149.66 L0 138.81 L0 46.27 L0.72 35.43 L4.52 21.87 L8.86 14.64 L14.64 8.86 L26.03 2.89 L35.43 0.72 L46.27 0" stroke="none" stroke-width="0" fill="#FFF"></path><path d="M46.27 0 M46.27 0 C173.07 0, 299.87 0, 373.73 0 M46.27 0 C163.95 0, 281.63 0, 373.73 0 M373.73 0 C404.58 0, 420 15.42, 420 46.27 M373.73 0 C404.58 0, 420 15.42, 420 46.27 M420 46.27 C420 79.08, 420 111.9, 420 138.81 M420 46.27 C420 77.56, 420 108.85, 420 138.81 M420 138.81 C420 169.66, 404.58 185.08, 373.73 185.08 M420 138.81 C420 169.66, 404.58 185.08, 373.73 185.08 M373.73 185.08 C261.38 185.08, 149.03 185.08, 46.27 185.08 M373.73 185.08 C279.73 185.08, 185.72 185.08, 46.27 185.08 M46.27 185.08 C15.42 185.08, 0 169.66, 0 138.81 M46.27 185.08 C15.42 185.08, 0 169.66, 0 138.81 M0 138.81 C0 106.67, 0 74.53, 0 46.27 M0 138.81 C0 102.15, 0 65.5, 0 46.27 M0 46.27 C0 15.42, 15.42 0, 46.27 0 M0 46.27 C0 15.42, 15.42 0, 46.27 0" stroke="#4285f4" stroke-width="2" fill="none"></path></g><g transform="translate(1452.3728813559317 481.8644067796613) rotate(0 92.54237288135585 18.983050847457605)"><text x="0" y="30.96610169491524" font-family="Helvetica, Segoe UI Emoji" font-size="28.474576271186425px" fill="#000000" text-anchor="start" style="white-space: pre;" direction="ltr">Cloud Storage</text></g><g transform="translate(1453.954802259887 531.6949152542372) rotate(0 131.10169491525426 52.440677966101674)"><text x="0" y="13.480225988700557" font-family="Helvetica, Segoe UI Emoji" font-size="16.451977401129938px" fill="#495057" text-anchor="start" style="white-space: pre;" direction="ltr">- Conteúdo da pasta "uploads"</text><text x="0" y="30.960451977401114" font-family="Helvetica, Segoe UI Emoji" font-size="16.451977401129938px" fill="#495057" text-anchor="start" style="white-space: pre;" direction="ltr">- Coldline</text><text x="0" y="48.440677966101674" font-family="Helvetica, Segoe UI Emoji" font-size="16.451977401129938px" fill="#495057" text-anchor="start" style="white-space: pre;" direction="ltr">- Acesso público para ler</text><text x="0" y="65.92090395480223" font-family="Helvetica, Segoe UI Emoji" font-size="16.451977401129938px" fill="#495057" text-anchor="start" style="white-space: pre;" direction="ltr">- Usuário com papel "administrador </text><text x="0" y="83.40112994350278" font-family="Helvetica, Segoe UI Emoji" font-size="16.451977401129938px" fill="#495057" text-anchor="start" style="white-space: pre;" direction="ltr">to storage" para o WordPress </text><text x="0" y="100.88135593220335" font-family="Helvetica, Segoe UI Emoji" font-size="16.451977401129938px" fill="#495057" text-anchor="start" style="white-space: pre;" direction="ltr">manipular arquivos</text></g><g stroke-linecap="round" transform="translate(1352.5141244823653 534.858757439306) rotate(0 34.60452128264865 12.111582675222621)"><path d="M0 0 L69.21 0 L69.21 24.22 L0 24.22" stroke="none" stroke-width="0" fill="#aecbfa"></path><path d="M0 0 C21.18 0, 42.36 0, 69.21 0 M0 0 C19.34 0, 38.69 0, 69.21 0 M69.21 0 C69.21 6.73, 69.21 13.45, 69.21 24.22 M69.21 0 C69.21 8.91, 69.21 17.82, 69.21 24.22 M69.21 24.22 C44.96 24.22, 20.72 24.22, 0 24.22 M69.21 24.22 C44.53 24.22, 19.85 24.22, 0 24.22 M0 24.22 C0 18.27, 0 12.32, 0 0 M0 24.22 C0 16.05, 0 7.88, 0 0" stroke="transparent" stroke-width="1" fill="none"></path></g><g stroke-linecap="round" transform="translate(1414.8022629042805 534.858757439306) rotate(0 3.460452071690952 12.111582675222621)"><path d="M0 0 L6.92 0 L6.92 24.22 L0 24.22" stroke="none" stroke-width="0" fill="#669df6"></path><path d="M0 0 C2.2 0, 4.41 0, 6.92 0 M0 0 C2.59 0, 5.18 0, 6.92 0 M6.92 0 C6.92 6.3, 6.92 12.61, 6.92 24.22 M6.92 0 C6.92 7.15, 6.92 14.3, 6.92 24.22 M6.92 24.22 C5.5 24.22, 4.08 24.22, 0 24.22 M6.92 24.22 C4.68 24.22, 2.44 24.22, 0 24.22 M0 24.22 C0 14.84, 0 5.46, 0 0 M0 24.22 C0 14.61, 0 5, 0 0" stroke="transparent" stroke-width="1" fill="none"></path></g><g stroke-linecap="round"><g transform="translate(1421.7231698763574 534.858757439306) rotate(0 -3.460453486038432 12.111583240961636)" fill-rule="evenodd"><path d="M0 0 L-6.92 0 L-6.92 24.22 L0 0 L0 0" stroke="none" stroke-width="0" fill="#4285f4" fill-rule="evenodd"></path><path d="M0 0 C-1.45 0, -2.89 0, -6.92 0 M0 0 C-2.66 0, -5.31 0, -6.92 0 M-6.92 0 C-6.92 5.53, -6.92 11.06, -6.92 24.22 M-6.92 0 C-6.92 9.56, -6.92 19.13, -6.92 24.22 M-6.92 24.22 C-4.65 16.29, -2.39 8.36, 0 0 M-6.92 24.22 C-4.68 16.37, -2.43 8.51, 0 0 M0 0 C0 0, 0 0, 0 0 M0 0 C0 0, 0 0, 0 0 M0 0 C0 0, 0 0, 0 0 M0 0 C0 0, 0 0, 0 0" stroke="#00000000" stroke-width="1" fill="none"></path></g></g><g stroke-linecap="round" transform="translate(1352.5141244823653 534.858757439306) rotate(0 3.460452071690952 12.111582675222621)"><path d="M0 0 L6.92 0 L6.92 24.22 L0 24.22" stroke="none" stroke-width="0" fill="#669df6"></path><path d="M0 0 C1.77 0, 3.54 0, 6.92 0 M0 0 C2.59 0, 5.17 0, 6.92 0 M6.92 0 C6.92 5.52, 6.92 11.04, 6.92 24.22 M6.92 0 C6.92 5.37, 6.92 10.73, 6.92 24.22 M6.92 24.22 C5.13 24.22, 3.33 24.22, 0 24.22 M6.92 24.22 C4.32 24.22, 1.72 24.22, 0 24.22 M0 24.22 C0 15.97, 0 7.72, 0 0 M0 24.22 C0 17.69, 0 11.16, 0 0" stroke="transparent" stroke-width="1" fill="none"></path></g><g stroke-linecap="round" transform="translate(1366.3559322033893 545.240114502988) rotate(0 10.381355932203405 1.730226035845476)"><path d="M0 0 L20.76 0 L20.76 3.46 L0 3.46" stroke="none" stroke-width="0" fill="#fff"></path><path d="M0 0 C8.26 0, 16.52 0, 20.76 0 M0 0 C8.07 0, 16.14 0, 20.76 0 M20.76 0 C20.76 1.01, 20.76 2.02, 20.76 3.46 M20.76 0 C20.76 1.23, 20.76 2.45, 20.76 3.46 M20.76 3.46 C13.7 3.46, 6.64 3.46, 0 3.46 M20.76 3.46 C13.05 3.46, 5.34 3.46, 0 3.46 M0 3.46 C0 2.34, 0 1.22, 0 0 M0 3.46 C0 2.21, 0 0.95, 0 0" stroke="transparent" stroke-width="1" fill="none"></path></g><g stroke-linecap="round" transform="translate(1397.4999999999998 541.7796610169491) rotate(0 5.190677966101703 5.190677966101703)"><path d="M2.6 0 L9.73 0.65 L10.38 2.6 L9.73 9.73 L7.79 10.38 L0.65 9.73 L0 2.6 L0.65 0.65 L2.6 0" stroke="none" stroke-width="0" fill="#fff"></path><path d="M2.6 0 M2.6 0 C3.95 0, 5.3 0, 7.79 0 M2.6 0 C4.64 0, 6.69 0, 7.79 0 M7.79 0 C9.52 0, 10.38 0.87, 10.38 2.6 M7.79 0 C9.52 0, 10.38 0.87, 10.38 2.6 M10.38 2.6 C10.38 3.66, 10.38 4.73, 10.38 7.79 M10.38 2.6 C10.38 4.07, 10.38 5.55, 10.38 7.79 M10.38 7.79 C10.38 9.52, 9.52 10.38, 7.79 10.38 M10.38 7.79 C10.38 9.52, 9.52 10.38, 7.79 10.38 M7.79 10.38 C5.78 10.38, 3.77 10.38, 2.6 10.38 M7.79 10.38 C5.92 10.38, 4.06 10.38, 2.6 10.38 M2.6 10.38 C0.87 10.38, 0 9.52, 0 7.79 M2.6 10.38 C0.87 10.38, 0 9.52, 0 7.79 M0 7.79 C0 5.95, 0 4.1, 0 2.6 M0 7.79 C0 6.03, 0 4.28, 0 2.6 M0 2.6 C0 0.87, 0.87 0, 2.6 0 M0 2.6 C0 0.87, 0.87 0, 2.6 0" stroke="transparent" stroke-width="1" fill="none"></path></g><g stroke-linecap="round" transform="translate(1352.5141244823653 566.0028263673944) rotate(0 34.60452128264865 12.111582675222621)"><path d="M0 0 L69.21 0 L69.21 24.22 L0 24.22" stroke="none" stroke-width="0" fill="#aecbfa"></path><path d="M0 0 C25.95 0, 51.89 0, 69.21 0 M0 0 C25.86 0, 51.72 0, 69.21 0 M69.21 0 C69.21 8.4, 69.21 16.79, 69.21 24.22 M69.21 0 C69.21 9.25, 69.21 18.51, 69.21 24.22 M69.21 24.22 C44.73 24.22, 20.24 24.22, 0 24.22 M69.21 24.22 C53.38 24.22, 37.56 24.22, 0 24.22 M0 24.22 C0 17.89, 0 11.56, 0 0 M0 24.22 C0 16.4, 0 8.57, 0 0" stroke="transparent" stroke-width="1" fill="none"></path></g><g stroke-linecap="round" transform="translate(1414.8022629042805 566.0028263673944) rotate(0 3.460452071690952 12.111582675222621)"><path d="M0 0 L6.92 0 L6.92 24.22 L0 24.22" stroke="none" stroke-width="0" fill="#669df6"></path><path d="M0 0 C1.96 0, 3.92 0, 6.92 0 M0 0 C1.4 0, 2.8 0, 6.92 0 M6.92 0 C6.92 7.5, 6.92 15, 6.92 24.22 M6.92 0 C6.92 9.33, 6.92 18.66, 6.92 24.22 M6.92 24.22 C4.98 24.22, 3.04 24.22, 0 24.22 M6.92 24.22 C4.57 24.22, 2.23 24.22, 0 24.22 M0 24.22 C0 18.32, 0 12.41, 0 0 M0 24.22 C0 16.94, 0 9.65, 0 0" stroke="transparent" stroke-width="1" fill="none"></path></g><g stroke-linecap="round"><g transform="translate(1421.7231698763574 566.0028263673944) rotate(0 -3.460453486038432 12.111582675222621)" fill-rule="evenodd"><path d="M0 0 L-6.92 0 L-6.92 24.22 L0 0 L0 0" stroke="none" stroke-width="0" fill="#4285f4" fill-rule="evenodd"></path><path d="M0 0 C-1.64 0, -3.27 0, -6.92 0 M0 0 C-2.23 0, -4.46 0, -6.92 0 M-6.92 0 C-6.92 9.56, -6.92 19.13, -6.92 24.22 M-6.92 0 C-6.92 8.19, -6.92 16.39, -6.92 24.22 M-6.92 24.22 C-4.95 17.32, -2.98 10.42, 0 0 M-6.92 24.22 C-5.01 17.55, -3.11 10.88, 0 0 M0 0 C0 0, 0 0, 0 0 M0 0 C0 0, 0 0, 0 0 M0 0 C0 0, 0 0, 0 0 M0 0 C0 0, 0 0, 0 0" stroke="#00000000" stroke-width="1" fill="none"></path></g></g><g stroke-linecap="round" transform="translate(1352.5141244823653 566.0028263673944) rotate(0 3.460452071690952 12.111582675222621)"><path d="M0 0 L6.92 0 L6.92 24.22 L0 24.22" stroke="none" stroke-width="0" fill="#669df6"></path><path d="M0 0 C2.32 0, 4.64 0, 6.92 0 M0 0 C2.06 0, 4.13 0, 6.92 0 M6.92 0 C6.92 9.67, 6.92 19.35, 6.92 24.22 M6.92 0 C6.92 7.48, 6.92 14.96, 6.92 24.22 M6.92 24.22 C5.4 24.22, 3.89 24.22, 0 24.22 M6.92 24.22 C5.01 24.22, 3.1 24.22, 0 24.22 M0 24.22 C0 15.95, 0 7.67, 0 0 M0 24.22 C0 15.94, 0 7.65, 0 0" stroke="transparent" stroke-width="1" fill="none"></path></g><g stroke-linecap="round" transform="translate(1366.3559322033893 576.384182299598) rotate(0 10.381355932203405 1.730226035845476)"><path d="M0 0 L20.76 0 L20.76 3.46 L0 3.46" stroke="none" stroke-width="0" fill="#fff"></path><path d="M0 0 C5.33 0, 10.67 0, 20.76 0 M0 0 C8.06 0, 16.13 0, 20.76 0 M20.76 0 C20.76 0.85, 20.76 1.69, 20.76 3.46 M20.76 0 C20.76 1.3, 20.76 2.6, 20.76 3.46 M20.76 3.46 C12.77 3.46, 4.78 3.46, 0 3.46 M20.76 3.46 C16.52 3.46, 12.28 3.46, 0 3.46 M0 3.46 C0 2.35, 0 1.24, 0 0 M0 3.46 C0 2.44, 0 1.42, 0 0" stroke="transparent" stroke-width="1" fill="none"></path></g><g stroke-linecap="round" transform="translate(1397.4999999999998 572.9237288135591) rotate(0 5.190677966101703 5.190677966101703)"><path d="M2.6 0 L9.73 0.65 L10.38 2.6 L9.73 9.73 L7.79 10.38 L0.65 9.73 L0 2.6 L0.65 0.65 L2.6 0" stroke="none" stroke-width="0" fill="#fff"></path><path d="M2.6 0 M2.6 0 C4.2 0, 5.81 0, 7.79 0 M2.6 0 C3.75 0, 4.9 0, 7.79 0 M7.79 0 C9.52 0, 10.38 0.87, 10.38 2.6 M7.79 0 C9.52 0, 10.38 0.87, 10.38 2.6 M10.38 2.6 C10.38 4.05, 10.38 5.51, 10.38 7.79 M10.38 2.6 C10.38 4.55, 10.38 6.5, 10.38 7.79 M10.38 7.79 C10.38 9.52, 9.52 10.38, 7.79 10.38 M10.38 7.79 C10.38 9.52, 9.52 10.38, 7.79 10.38 M7.79 10.38 C6.52 10.38, 5.25 10.38, 2.6 10.38 M7.79 10.38 C6.39 10.38, 4.99 10.38, 2.6 10.38 M2.6 10.38 C0.87 10.38, 0 9.52, 0 7.79 M2.6 10.38 C0.87 10.38, 0 9.52, 0 7.79 M0 7.79 C0 6.7, 0 5.61, 0 2.6 M0 7.79 C0 6.71, 0 5.63, 0 2.6 M0 2.6 C0 0.87, 0.87 0, 2.6 0 M0 2.6 C0 0.87, 0.87 0, 2.6 0" stroke="transparent" stroke-width="1" fill="none"></path></g><g stroke-linecap="round" transform="translate(690 630) rotate(0 210 92.54237288135596)"><path d="M46.27 0 L373.73 0 L389.45 1.63 L398.13 4.52 L401.93 6.51 L408.43 11.57 L413.49 18.07 L417.11 26.03 L419.28 35.43 L420 46.27 L420 138.81 L419.28 149.66 L415.48 163.21 L413.49 167.01 L408.43 173.52 L401.93 178.58 L393.97 182.19 L379.33 184.9 L46.27 185.08 L35.43 184.36 L21.87 180.57 L14.64 176.23 L8.86 170.44 L2.89 159.06 L0.72 149.66 L0 138.81 L0 46.27 L0.72 35.43 L2.89 26.03 L6.51 18.07 L8.86 14.64 L14.64 8.86 L26.03 2.89 L35.43 0.72 L46.27 0" stroke="none" stroke-width="0" fill="#FFF"></path><path d="M46.27 0 M46.27 0 C124.17 0, 202.07 0, 373.73 0 M46.27 0 C162.38 0, 278.49 0, 373.73 0 M373.73 0 C404.58 0, 420 15.42, 420 46.27 M373.73 0 C404.58 0, 420 15.42, 420 46.27 M420 46.27 C420 65.02, 420 83.78, 420 138.81 M420 46.27 C420 78.02, 420 109.77, 420 138.81 M420 138.81 C420 169.66, 404.58 185.08, 373.73 185.08 M420 138.81 C420 169.66, 404.58 185.08, 373.73 185.08 M373.73 185.08 C269.36 185.08, 164.99 185.08, 46.27 185.08 M373.73 185.08 C259.99 185.08, 146.25 185.08, 46.27 185.08 M46.27 185.08 C15.42 185.08, 0 169.66, 0 138.81 M46.27 185.08 C15.42 185.08, 0 169.66, 0 138.81 M0 138.81 C0 104.63, 0 70.45, 0 46.27 M0 138.81 C0 111.73, 0 84.65, 0 46.27 M0 46.27 C0 15.42, 15.42 0, 46.27 0 M0 46.27 C0 15.42, 15.42 0, 46.27 0" stroke="#4285f4" stroke-width="2" fill="none"></path></g><g transform="translate(832.3728813559314 650) rotate(0 72.5 14.5)"><text x="0" y="22" font-family="Helvetica, Segoe UI Emoji" font-size="28.47457627118644px" fill="#000000" text-anchor="start" style="white-space: pre;" direction="ltr">Cloud CDN</text></g><g transform="translate(832.3728813559314 693.2769188887668) rotate(0 122.5 51)"><text x="0" y="13" font-family="Helvetica, Segoe UI Emoji" font-size="16px" fill="#495057" text-anchor="start" style="white-space: pre;" direction="ltr">- Forçar cache de todo o conteúdo</text><text x="0" y="30" font-family="Helvetica, Segoe UI Emoji" font-size="16px" fill="#495057" text-anchor="start" style="white-space: pre;" direction="ltr">- TTLs: padrão</text><text x="0" y="47" font-family="Helvetica, Segoe UI Emoji" font-size="16px" fill="#495057" text-anchor="start" style="white-space: pre;" direction="ltr">- Compactação: automático</text><text x="0" y="64" font-family="Helvetica, Segoe UI Emoji" font-size="16px" fill="#495057" text-anchor="start" style="white-space: pre;" direction="ltr">- Exibir desatualizado: desativar</text><text x="0" y="81" font-family="Helvetica, Segoe UI Emoji" font-size="16px" fill="#495057" text-anchor="start" style="white-space: pre;" direction="ltr">- Permitir acesso público</text><text x="0" y="98" font-family="Helvetica, Segoe UI Emoji" font-size="16px" fill="#495057" text-anchor="start" style="white-space: pre;" direction="ltr">- Ativar cache negativo</text></g><g stroke-linecap="round"><g transform="translate(767.251737562276 684.4774012242337) rotate(0 5.975935014627794 10.754020234285747)" fill-rule="evenodd"><path d="M0 0 L0 9.21 L11.95 21.51 L11.95 12.26 L0 0" stroke="none" stroke-width="0" fill="#669df6" fill-rule="evenodd"></path><path d="M0 0 C0 3.58, 0 7.16, 0 9.21 M0 0 C0 2.69, 0 5.37, 0 9.21 M0 9.21 C4.24 13.57, 8.47 17.93, 11.95 21.51 M0 9.21 C4.06 13.39, 8.13 17.57, 11.95 21.51 M11.95 21.51 C11.95 18.07, 11.95 14.64, 11.95 12.26 M11.95 21.51 C11.95 18.51, 11.95 15.52, 11.95 12.26 M11.95 12.26 C7.62 7.82, 3.29 3.38, 0 0 M11.95 12.26 C8.1 8.31, 4.25 4.36, 0 0 M0 0 C0 0, 0 0, 0 0 M0 0 C0 0, 0 0, 0 0" stroke="transparent" stroke-width="1" fill="none"></path></g></g><g stroke-linecap="round"><g transform="translate(795.8936368004756 722.6754663758356) rotate(0 -1.177886704266939 5.975935014627737)" fill-rule="evenodd"><path d="M0 0 L-11.91 11.95 L-2.36 11.95 L9.56 0 L0 0" stroke="none" stroke-width="0" fill="#669df6" fill-rule="evenodd"></path><path d="M0 0 C-4.43 4.45, -8.87 8.9, -11.91 11.95 M0 0 C-4.15 4.16, -8.29 8.32, -11.91 11.95 M-11.91 11.95 C-8.49 11.95, -5.06 11.95, -2.36 11.95 M-11.91 11.95 C-8.48 11.95, -5.05 11.95, -2.36 11.95 M-2.36 11.95 C1.25 8.33, 4.86 4.72, 9.56 0 M-2.36 11.95 C1.12 8.46, 4.6 4.98, 9.56 0 M9.56 0 C7.28 0, 5.01 0, 0 0 M9.56 0 C6.79 0, 4.02 0, 0 0 M0 0 C0 0, 0 0, 0 0 M0 0 C0 0, 0 0, 0 0" stroke="transparent" stroke-width="1" fill="none"></path></g></g><g stroke-linecap="round"><g transform="translate(738.6098439814673 722.6754663758356) rotate(0 1.1978486634916408 5.975935014627737)" fill-rule="evenodd"><path d="M0 0 L11.95 11.95 L2.4 11.95 L-9.56 0 L0 0" stroke="none" stroke-width="0" fill="#669df6" fill-rule="evenodd"></path><path d="M0 0 C4.47 4.47, 8.93 8.93, 11.95 11.95 M0 0 C4.14 4.14, 8.28 8.28, 11.95 11.95 M11.95 11.95 C8.3 11.95, 4.65 11.95, 2.4 11.95 M11.95 11.95 C8.57 11.95, 5.19 11.95, 2.4 11.95 M2.4 11.95 C-0.34 9.22, -3.07 6.49, -9.56 0 M2.4 11.95 C-0.73 8.83, -3.85 5.7, -9.56 0 M-9.56 0 C-6.47 0, -3.38 0, 0 0 M-9.56 0 C-7 0, -4.44 0, 0 0 M0 0 C0 0, 0 0, 0 0 M0 0 C0 0, 0 0, 0 0" stroke="transparent" stroke-width="1" fill="none"></path></g></g><g stroke-linecap="round"><g transform="translate(767.251737562276 760.8735346390027) rotate(0 5.975935014627794 -10.73405572923565)" fill-rule="evenodd"><path d="M0 0 L0 -9.21 L11.95 -21.47 L11.95 -12.26 L0 0" stroke="none" stroke-width="0" fill="#669df6" fill-rule="evenodd"></path><path d="M0 0 C0 -1.87, 0 -3.73, 0 -9.21 M0 0 C0 -2.85, 0 -5.7, 0 -9.21 M0 -9.21 C4.6 -13.93, 9.21 -18.65, 11.95 -21.47 M0 -9.21 C3.35 -12.65, 6.7 -16.08, 11.95 -21.47 M11.95 -21.47 C11.95 -18.35, 11.95 -15.22, 11.95 -12.26 M11.95 -21.47 C11.95 -19.22, 11.95 -16.98, 11.95 -12.26 M11.95 -12.26 C8.36 -8.57, 4.76 -4.89, 0 0 M11.95 -12.26 C9.45 -9.69, 6.94 -7.12, 0 0 M0 0 C0 0, 0 0, 0 0 M0 0 C0 0, 0 0, 0 0" stroke="transparent" stroke-width="1" fill="none"></path></g></g><g stroke-linecap="round"><g transform="translate(767.2517375622751 684.4774012242337) rotate(0 -5.955970085273293 10.754020234285747)" fill-rule="evenodd"><path d="M0 0 L-11.91 12.26 L-11.91 21.51 L0 9.21 L0 0" stroke="none" stroke-width="0" fill="#aecbfa" fill-rule="evenodd"></path><path d="M0 0 C-3.84 3.95, -7.68 7.91, -11.91 12.26 M0 0 C-4.7 4.84, -9.4 9.68, -11.91 12.26 M-11.91 12.26 C-11.91 15.39, -11.91 18.52, -11.91 21.51 M-11.91 12.26 C-11.91 14.89, -11.91 17.53, -11.91 21.51 M-11.91 21.51 C-8.63 18.12, -5.35 14.73, 0 9.21 M-11.91 21.51 C-7.63 17.09, -3.35 12.67, 0 9.21 M0 9.21 C0 6.67, 0 4.12, 0 0 M0 9.21 C0 6.1, 0 2.98, 0 0 M0 0 C0 0, 0 0, 0 0 M0 0 C0 0, 0 0, 0 0" stroke="transparent" stroke-width="1" fill="none"></path></g></g><g stroke-linecap="round"><g transform="translate(793.5378633919418 710.763526205289) rotate(0 1.177886704266939 5.95597008527335)" fill-rule="evenodd"><path d="M0 0 L-9.56 0 L2.36 11.91 L11.91 11.91 L0 0" stroke="none" stroke-width="0" fill="#aecbfa" fill-rule="evenodd"></path><path d="M0 0 C-2.85 0, -5.7 0, -9.56 0 M0 0 C-3.82 0, -7.63 0, -9.56 0 M-9.56 0 C-5.88 3.68, -2.2 7.36, 2.36 11.91 M-9.56 0 C-6.94 2.61, -4.33 5.22, 2.36 11.91 M2.36 11.91 C4.99 11.91, 7.63 11.91, 11.91 11.91 M2.36 11.91 C5.62 11.91, 8.89 11.91, 11.91 11.91 M11.91 11.91 C7.84 7.84, 3.76 3.76, 0 0 M11.91 11.91 C8.45 8.45, 4.99 4.99, 0 0 M0 0 C0 0, 0 0, 0 0 M0 0 C0 0, 0 0, 0 0" stroke="transparent" stroke-width="1" fill="none"></path></g></g><g stroke-linecap="round"><g transform="translate(741.0055415913203 710.763526205289) rotate(0 -1.1978489463613187 5.95597008527335)" fill-rule="evenodd"><path d="M0 0 L9.56 0 L-2.4 11.91 L-11.95 11.91 L0 0" stroke="none" stroke-width="0" fill="#aecbfa" fill-rule="evenodd"></path><path d="M0 0 C3.71 0, 7.42 0, 9.56 0 M0 0 C2.34 0, 4.67 0, 9.56 0 M9.56 0 C5.06 4.48, 0.57 8.96, -2.4 11.91 M9.56 0 C4.96 4.58, 0.36 9.17, -2.4 11.91 M-2.4 11.91 C-4.35 11.91, -6.3 11.91, -11.95 11.91 M-2.4 11.91 C-5.46 11.91, -8.53 11.91, -11.95 11.91 M-11.95 11.91 C-8.42 8.39, -4.89 4.87, 0 0 M-11.95 11.91 C-7.2 7.17, -2.44 2.44, 0 0 M0 0 C0 0, 0 0, 0 0 M0 0 C0 0, 0 0, 0 0" stroke="transparent" stroke-width="1" fill="none"></path></g></g><g stroke-linecap="round"><g transform="translate(767.2517375622751 760.8735346390027) rotate(0 -5.955970085273293 -10.73405572923565)" fill-rule="evenodd"><path d="M0 0 L-11.91 -12.26 L-11.91 -21.47 L0 -9.21 L0 0" stroke="none" stroke-width="0" fill="#aecbfa" fill-rule="evenodd"></path><path d="M0 0 C-3.31 -3.4, -6.61 -6.81, -11.91 -12.26 M0 0 C-4.38 -4.51, -8.76 -9.02, -11.91 -12.26 M-11.91 -12.26 C-11.91 -15.48, -11.91 -18.71, -11.91 -21.47 M-11.91 -12.26 C-11.91 -15.54, -11.91 -18.83, -11.91 -21.47 M-11.91 -21.47 C-8.99 -18.46, -6.06 -15.45, 0 -9.21 M-11.91 -21.47 C-7.89 -17.33, -3.87 -13.2, 0 -9.21 M0 -9.21 C0 -7.23, 0 -5.24, 0 0 M0 -9.21 C0 -6.49, 0 -3.77, 0 0 M0 0 C0 0, 0 0, 0 0 M0 0 C0 0, 0 0, 0 0" stroke="transparent" stroke-width="1" fill="none"></path></g></g><g stroke-linecap="round"><g transform="translate(779.2036075915307 734.6273364050912) rotate(0 -11.931905099901087 -11.931905099901087)" fill-rule="evenodd"><path d="M0 0 L-23.86 0 L-23.86 -23.86 L0 -23.86 L0 0" stroke="none" stroke-width="0" fill="#aecbfa" fill-rule="evenodd"></path><path d="M0 0 C-6.21 0, -12.42 0, -23.86 0 M0 0 C-7.04 0, -14.09 0, -23.86 0 M-23.86 0 C-23.86 -4.9, -23.86 -9.8, -23.86 -23.86 M-23.86 0 C-23.86 -7.73, -23.86 -15.45, -23.86 -23.86 M-23.86 -23.86 C-14.62 -23.86, -5.38 -23.86, 0 -23.86 M-23.86 -23.86 C-14.39 -23.86, -4.92 -23.86, 0 -23.86 M0 -23.86 C0 -15.4, 0 -6.94, 0 0 M0 -23.86 C0 -17, 0 -10.14, 0 0 M0 0 C0 0, 0 0, 0 0 M0 0 C0 0, 0 0, 0 0" stroke="transparent" stroke-width="1" fill="none"></path></g></g><g stroke-linecap="round"><g transform="translate(779.2036075915307 710.763526205289) rotate(0 -11.931905099901087 11.931905099901087)" fill-rule="evenodd"><path d="M0 0 L0 23.86 L-23.86 23.86 L0 0" stroke="none" stroke-width="0" fill="#669df6" fill-rule="evenodd"></path><path d="M0 0 C0 5.45, 0 10.9, 0 23.86 M0 0 C0 9.42, 0 18.84, 0 23.86 M0 23.86 C-7.81 23.86, -15.63 23.86, -23.86 23.86 M0 23.86 C-7.74 23.86, -15.48 23.86, -23.86 23.86 M-23.86 23.86 C-18.96 18.96, -14.05 14.05, 0 0 M-23.86 23.86 C-15.36 15.36, -6.85 6.85, 0 0 M0 0 C0 0, 0 0, 0 0 M0 0 C0 0, 0 0, 0 0" stroke="transparent" stroke-width="1" fill="none"></path></g></g><g stroke-linecap="round"><g transform="translate(779.2036075915316 710.763526205289) rotate(0 -5.975935014627794 11.931905099901087)" fill-rule="evenodd"><path d="M0 0 L0 23.86 L-11.95 11.91 L0 0" stroke="none" stroke-width="0" fill="#4285f4" fill-rule="evenodd"></path><path d="M0 0 C0 5.44, 0 10.88, 0 23.86 M0 0 C0 5.29, 0 10.57, 0 23.86 M0 23.86 C-3.1 20.77, -6.19 17.67, -11.95 11.91 M0 23.86 C-4.49 19.37, -8.98 14.88, -11.95 11.91 M-11.95 11.91 C-7.88 7.85, -3.81 3.8, 0 0 M-11.95 11.91 C-8.73 8.7, -5.51 5.49, 0 0 M0 0 C0 0, 0 0, 0 0 M0 0 C0 0, 0 0, 0 0" stroke="transparent" stroke-width="1" fill="none"></path></g></g><g stroke-linecap="round" transform="translate(70 490) rotate(0 210 84)"><path d="M42 0 L378 0 L387.84 0.66 L396.38 2.63 L403.59 5.91 L409.5 10.5 L414.09 16.41 L417.38 23.63 L419.34 32.16 L420 42 L420 126 L419.34 135.84 L417.38 144.38 L414.09 151.59 L409.5 157.5 L403.59 162.09 L396.38 165.38 L387.84 167.34 L378 168 L42 168 L32.16 167.34 L23.63 165.38 L16.41 162.09 L10.5 157.5 L5.91 151.59 L2.63 144.38 L0.66 135.84 L0 126 L0 42 L0.66 32.16 L2.63 23.63 L5.91 16.41 L10.5 10.5 L16.41 5.91 L23.63 2.63 L32.16 0.66 L42 0" stroke="none" stroke-width="0" fill="#FFF"></path><path d="M42 0 M42 0 C138.59 0, 235.18 0, 378 0 M42 0 C122.21 0, 202.42 0, 378 0 M378 0 C406 0, 420 14, 420 42 M378 0 C406 0, 420 14, 420 42 M420 42 C420 65.79, 420 89.58, 420 126 M420 42 C420 66.22, 420 90.45, 420 126 M420 126 C420 154, 406 168, 378 168 M420 126 C420 154, 406 168, 378 168 M378 168 C255.56 168, 133.13 168, 42 168 M378 168 C260.27 168, 142.53 168, 42 168 M42 168 C14 168, 0 154, 0 126 M42 168 C14 168, 0 154, 0 126 M0 126 C0 102.31, 0 78.62, 0 42 M0 126 C0 107.41, 0 88.82, 0 42 M0 42 C0 14, 14 0, 42 0 M0 42 C0 14, 14 0, 42 0" stroke="#4285f4" stroke-width="2" fill="none"></path></g><g transform="translate(199.23076923076906 496.76923076923106) rotate(0 129.23076923076928 17.230769230769226)"><text x="0" y="28.461538461538474" font-family="Helvetica, Segoe UI Emoji" font-size="25.846153846153836px" fill="#000000" text-anchor="start" style="white-space: pre;" direction="ltr">Cloud Load Balancing</text></g><g transform="translate(199.23076923076906 539.9615384615374) rotate(0 129 34)"><text x="0" y="13" font-family="Helvetica, Segoe UI Emoji" font-size="16px" fill="#495057" text-anchor="start" style="white-space: pre;" direction="ltr">- Front-end HTTPS</text><text x="0" y="30" font-family="Helvetica, Segoe UI Emoji" font-size="16px" fill="#495057" text-anchor="start" style="white-space: pre;" direction="ltr">- Back-end: grupo de endpoints sem</text><text x="0" y="47" font-family="Helvetica, Segoe UI Emoji" font-size="16px" fill="#495057" text-anchor="start" style="white-space: pre;" direction="ltr">servidor (Cloud Run)</text><text x="0" y="64" font-family="Helvetica, Segoe UI Emoji" font-size="16px" fill="#495057" text-anchor="start" style="white-space: pre;" direction="ltr">- Host e caminho: regra simples</text></g><g stroke-linecap="round"><g transform="translate(142.76410557673535 570.322144435002) rotate(0 -3.220980570866459 -6.441958060631379)" fill-rule="evenodd"><path d="M0 0 L-6.44 0 L-6.44 -12.88 L0 -12.88 L0 0" stroke="none" stroke-width="0" fill="#4285f4" fill-rule="evenodd"></path><path d="M0 0 C-1.99 0, -3.99 0, -6.44 0 M0 0 C-2.48 0, -4.96 0, -6.44 0 M-6.44 0 C-6.44 -3.61, -6.44 -7.23, -6.44 -12.88 M-6.44 0 C-6.44 -4.37, -6.44 -8.74, -6.44 -12.88 M-6.44 -12.88 C-4.87 -12.88, -3.3 -12.88, 0 -12.88 M-6.44 -12.88 C-4.5 -12.88, -2.57 -12.88, 0 -12.88 M0 -12.88 C0 -10.18, 0 -7.48, 0 0 M0 -12.88 C0 -8.43, 0 -3.97, 0 0 M0 0 C0 0, 0 0, 0 0 M0 0 C0 0, 0 0, 0 0" stroke="#00000000" stroke-width="1" fill="none"></path></g></g><g stroke-linecap="round"><g transform="translate(113.77529173630865 570.3221444350028) rotate(0 25.767831215491697 8.0524478325477)" fill-rule="evenodd"><path d="M0 0 L0 16.1 L6.44 16.1 L6.44 6.44 L22.55 6.44 L22.55 16.1 L28.99 16.1 L28.99 6.44 L45.09 6.44 L45.09 16.1 L51.54 16.1 L51.54 0 L0 0" stroke="none" stroke-width="0" fill="#669df6" fill-rule="evenodd"></path><path d="M0 0 C0 6.36, 0 12.72, 0 16.1 M0 0 C0 5.45, 0 10.9, 0 16.1 M0 16.1 C1.84 16.1, 3.67 16.1, 6.44 16.1 M0 16.1 C1.77 16.1, 3.55 16.1, 6.44 16.1 M6.44 16.1 C6.44 12.63, 6.44 9.16, 6.44 6.44 M6.44 16.1 C6.44 13.44, 6.44 10.77, 6.44 6.44 M6.44 6.44 C11.89 6.44, 17.33 6.44, 22.55 6.44 M6.44 6.44 C10.29 6.44, 14.13 6.44, 22.55 6.44 M22.55 6.44 C22.55 9.22, 22.55 11.99, 22.55 16.1 M22.55 6.44 C22.55 9.23, 22.55 12.01, 22.55 16.1 M22.55 16.1 C25.1 16.1, 27.65 16.1, 28.99 16.1 M22.55 16.1 C24.8 16.1, 27.06 16.1, 28.99 16.1 M28.99 16.1 C28.99 13.62, 28.99 11.13, 28.99 6.44 M28.99 16.1 C28.99 13.97, 28.99 11.83, 28.99 6.44 M28.99 6.44 C32.89 6.44, 36.79 6.44, 45.09 6.44 M28.99 6.44 C34.48 6.44, 39.97 6.44, 45.09 6.44 M45.09 6.44 C45.09 10.13, 45.09 13.82, 45.09 16.1 M45.09 6.44 C45.09 9, 45.09 11.55, 45.09 16.1 M45.09 16.1 C47.3 16.1, 49.51 16.1, 51.54 16.1 M45.09 16.1 C46.6 16.1, 48.1 16.1, 51.54 16.1 M51.54 16.1 C51.54 11.18, 51.54 6.25, 51.54 0 M51.54 16.1 C51.54 12.11, 51.54 8.11, 51.54 0 M51.54 0 C33.7 0, 15.87 0, 0 0 M51.54 0 C39.09 0, 26.64 0, 0 0 M0 0 C0 0, 0 0, 0 0 M0 0 C0 0, 0 0, 0 0" stroke="#00000000" stroke-width="1" fill="none"></path></g></g><g stroke-linecap="round"><g transform="translate(120.21725082397325 541.3333336756784) rotate(0 19.32587418189405 8.052447319030762)" fill-rule="evenodd"><path d="M0 0 L38.65 0 L38.65 16.1 L0 16.1 L0 0" stroke="none" stroke-width="0" fill="#aecbfa" fill-rule="evenodd"></path><path d="M0 0 C15.44 0, 30.87 0, 38.65 0 M0 0 C11.94 0, 23.87 0, 38.65 0 M38.65 0 C38.65 3.53, 38.65 7.06, 38.65 16.1 M38.65 0 C38.65 4.44, 38.65 8.89, 38.65 16.1 M38.65 16.1 C25.45 16.1, 12.24 16.1, 0 16.1 M38.65 16.1 C25.43 16.1, 12.2 16.1, 0 16.1 M0 16.1 C0 11.43, 0 6.75, 0 0 M0 16.1 C0 12.5, 0 8.9, 0 0 M0 0 C0 0, 0 0, 0 0 M0 0 C0 0, 0 0, 0 0" stroke="#00000000" stroke-width="1" fill="none"></path></g></g><g stroke-linecap="round"><g transform="translate(139.54312603290282 541.3333336756784) rotate(0 9.662936577430173 8.052447319030762)" fill-rule="evenodd"><path d="M0 0 L19.33 0 L19.33 16.1 L0 16.1 L0 0" stroke="none" stroke-width="0" fill="#669df6" fill-rule="evenodd"></path><path d="M0 0 C4.72 0, 9.45 0, 19.33 0 M0 0 C7.27 0, 14.54 0, 19.33 0 M19.33 0 C19.33 6.2, 19.33 12.4, 19.33 16.1 M19.33 0 C19.33 3.29, 19.33 6.58, 19.33 16.1 M19.33 16.1 C13.12 16.1, 6.92 16.1, 0 16.1 M19.33 16.1 C13.62 16.1, 7.91 16.1, 0 16.1 M0 16.1 C0 9.7, 0 3.29, 0 0 M0 16.1 C0 12.2, 0 8.29, 0 0 M0 0 C0 0, 0 0, 0 0 M0 0 C0 0, 0 0, 0 0" stroke="#00000000" stroke-width="1" fill="none"></path></g></g><g stroke-linecap="round"><g transform="translate(152.42704010009902 586.4270401000981) rotate(0 9.662936577430173 9.662936577430145)" fill-rule="evenodd"><path d="M0 0 L19.33 0 L19.33 19.33 L0 19.33 L0 0" stroke="none" stroke-width="0" fill="#aecbfa" fill-rule="evenodd"></path><path d="M0 0 C7.11 0, 14.22 0, 19.33 0 M0 0 C6.77 0, 13.54 0, 19.33 0 M19.33 0 C19.33 6.89, 19.33 13.78, 19.33 19.33 M19.33 0 C19.33 4.75, 19.33 9.49, 19.33 19.33 M19.33 19.33 C12.8 19.33, 6.28 19.33, 0 19.33 M19.33 19.33 C15.16 19.33, 11 19.33, 0 19.33 M0 19.33 C0 13.61, 0 7.9, 0 0 M0 19.33 C0 13.15, 0 6.98, 0 0 M0 0 C0 0, 0 0, 0 0 M0 0 C0 0, 0 0, 0 0" stroke="#00000000" stroke-width="1" fill="none"></path></g></g><g stroke-linecap="round"><g transform="translate(107.33333367567775 586.4270401000981) rotate(0 9.662937090947025 9.662936577430145)" fill-rule="evenodd"><path d="M0 0 L19.33 0 L19.33 19.33 L0 19.33 L0 0" stroke="none" stroke-width="0" fill="#aecbfa" fill-rule="evenodd"></path><path d="M0 0 C5.7 0, 11.41 0, 19.33 0 M0 0 C3.97 0, 7.94 0, 19.33 0 M19.33 0 C19.33 6.26, 19.33 12.51, 19.33 19.33 M19.33 0 C19.33 7.48, 19.33 14.97, 19.33 19.33 M19.33 19.33 C11.66 19.33, 3.99 19.33, 0 19.33 M19.33 19.33 C12.47 19.33, 5.62 19.33, 0 19.33 M0 19.33 C0 13.77, 0 8.21, 0 0 M0 19.33 C0 12.7, 0 6.06, 0 0 M0 0 C0 0, 0 0, 0 0 M0 0 C0 0, 0 0, 0 0" stroke="#00000000" stroke-width="1" fill="none"></path></g></g><g stroke-linecap="round"><g transform="translate(116.99627128014117 586.4270401000981) rotate(0 4.831468288715087 9.662936577430145)" fill-rule="evenodd"><path d="M0 0 L9.66 0 L9.66 19.33 L0 19.33 L0 0" stroke="none" stroke-width="0" fill="#669df6" fill-rule="evenodd"></path><path d="M0 0 C3.81 0, 7.63 0, 9.66 0 M0 0 C3.16 0, 6.33 0, 9.66 0 M9.66 0 C9.66 6.27, 9.66 12.54, 9.66 19.33 M9.66 0 C9.66 3.97, 9.66 7.95, 9.66 19.33 M9.66 19.33 C6.22 19.33, 2.77 19.33, 0 19.33 M9.66 19.33 C6.5 19.33, 3.34 19.33, 0 19.33 M0 19.33 C0 11.9, 0 4.48, 0 0 M0 19.33 C0 13.56, 0 7.78, 0 0 M0 0 C0 0, 0 0, 0 0 M0 0 C0 0, 0 0, 0 0" stroke="#00000000" stroke-width="1" fill="none"></path></g></g><g stroke-linecap="round"><g transform="translate(129.88018740140433 586.4270401000981) rotate(0 9.66293863149781 9.662936577430145)" fill-rule="evenodd"><path d="M0 0 L19.33 0 L19.33 19.33 L0 19.33 L0 0" stroke="none" stroke-width="0" fill="#aecbfa" fill-rule="evenodd"></path><path d="M0 0 C4.28 0, 8.56 0, 19.33 0 M0 0 C5.01 0, 10.01 0, 19.33 0 M19.33 0 C19.33 7.26, 19.33 14.52, 19.33 19.33 M19.33 0 C19.33 6.58, 19.33 13.17, 19.33 19.33 M19.33 19.33 C14.12 19.33, 8.9 19.33, 0 19.33 M19.33 19.33 C13.63 19.33, 7.93 19.33, 0 19.33 M0 19.33 C0 15.31, 0 11.3, 0 0 M0 19.33 C0 14.56, 0 9.8, 0 0 M0 0 C0 0, 0 0, 0 0 M0 0 C0 0, 0 0, 0 0" stroke="#00000000" stroke-width="1" fill="none"></path></g></g><g stroke-linecap="round"><g transform="translate(139.54312603290282 586.4270401000981) rotate(0 4.831469315749018 9.662936577430145)" fill-rule="evenodd"><path d="M0 0 L9.66 0 L9.66 19.33 L0 19.33 L0 0" stroke="none" stroke-width="0" fill="#669df6" fill-rule="evenodd"></path><path d="M0 0 C3.43 0, 6.85 0, 9.66 0 M0 0 C3.29 0, 6.57 0, 9.66 0 M9.66 0 C9.66 7.18, 9.66 14.35, 9.66 19.33 M9.66 0 C9.66 6.25, 9.66 12.51, 9.66 19.33 M9.66 19.33 C6.16 19.33, 2.66 19.33, 0 19.33 M9.66 19.33 C6.55 19.33, 3.44 19.33, 0 19.33 M0 19.33 C0 14.01, 0 8.69, 0 0 M0 19.33 C0 11.74, 0 4.16, 0 0 M0 0 C0 0, 0 0, 0 0 M0 0 C0 0, 0 0, 0 0" stroke="#00000000" stroke-width="1" fill="none"></path></g></g><g stroke-linecap="round"><g transform="translate(162.08998283973096 586.4270401000981) rotate(0 4.831465207613519 9.662936577430145)" fill-rule="evenodd"><path d="M0 0 L9.66 0 L9.66 19.33 L0 19.33 L0 0" stroke="none" stroke-width="0" fill="#669df6" fill-rule="evenodd"></path><path d="M0 0 C3.46 0, 6.93 0, 9.66 0 M0 0 C3.47 0, 6.94 0, 9.66 0 M9.66 0 C9.66 5.85, 9.66 11.7, 9.66 19.33 M9.66 0 C9.66 5.64, 9.66 11.28, 9.66 19.33 M9.66 19.33 C7.36 19.33, 5.07 19.33, 0 19.33 M9.66 19.33 C6.87 19.33, 4.07 19.33, 0 19.33 M0 19.33 C0 15.41, 0 11.49, 0 0 M0 19.33 C0 13.28, 0 7.24, 0 0 M0 0 C0 0, 0 0, 0 0 M0 0 C0 0, 0 0, 0 0" stroke="#00000000" stroke-width="1" fill="none"></path></g></g><g stroke-linecap="round" transform="translate(690 350) rotate(0 210 92.54237288135596)"><path d="M46.27 0 L373.73 0 L384.57 0.72 L398.13 4.52 L405.36 8.86 L408.43 11.57 L413.49 18.07 L417.11 26.03 L419.28 35.43 L420 46.27 L420 138.81 L419.28 149.66 L415.48 163.21 L413.49 167.01 L408.43 173.52 L401.93 178.58 L393.97 182.19 L379.33 184.9 L46.27 185.08 L35.43 184.36 L21.87 180.57 L14.64 176.23 L8.86 170.44 L2.89 159.06 L0.72 149.66 L0 138.81 L0 46.27 L0.72 35.43 L2.89 26.03 L6.51 18.07 L8.86 14.64 L14.64 8.86 L26.03 2.89 L35.43 0.72 L46.27 0" stroke="none" stroke-width="0" fill="#FFF"></path><path d="M46.27 0 M46.27 0 C125.67 0, 205.08 0, 373.73 0 M46.27 0 C138.95 0, 231.64 0, 373.73 0 M373.73 0 C404.58 0, 420 15.42, 420 46.27 M373.73 0 C404.58 0, 420 15.42, 420 46.27 M420 46.27 C420 81.65, 420 117.03, 420 138.81 M420 46.27 C420 65.34, 420 84.42, 420 138.81 M420 138.81 C420 169.66, 404.58 185.08, 373.73 185.08 M420 138.81 C420 169.66, 404.58 185.08, 373.73 185.08 M373.73 185.08 C286.4 185.08, 199.07 185.08, 46.27 185.08 M373.73 185.08 C274.16 185.08, 174.58 185.08, 46.27 185.08 M46.27 185.08 C15.42 185.08, 0 169.66, 0 138.81 M46.27 185.08 C15.42 185.08, 0 169.66, 0 138.81 M0 138.81 C0 117.12, 0 95.42, 0 46.27 M0 138.81 C0 112, 0 85.18, 0 46.27 M0 46.27 C0 15.42, 15.42 0, 46.27 0 M0 46.27 C0 15.42, 15.42 0, 46.27 0" stroke="#4285f4" stroke-width="2" fill="none"></path></g><g transform="translate(832.3728813559305 370) rotate(0 64.06779661016958 18.983050847457633)"><text x="0" y="30.966101694915253" font-family="Helvetica, Segoe UI Emoji" font-size="28.47457627118644px" fill="#000000" text-anchor="start" style="white-space: pre;" direction="ltr">Cloud Run</text></g><g transform="translate(832.3728813559305 416.4406779661026) rotate(0 135.5 34)"><text x="0" y="13" font-family="Helvetica, Segoe UI Emoji" font-size="16px" fill="#495057" text-anchor="start" style="white-space: pre;" direction="ltr">- Bitnami WordPress + Nginx (Docker)</text><text x="0" y="30" font-family="Helvetica, Segoe UI Emoji" font-size="16px" fill="#495057" text-anchor="start" style="white-space: pre;" direction="ltr">- 1ª geração</text><text x="0" y="47" font-family="Helvetica, Segoe UI Emoji" font-size="16px" fill="#495057" text-anchor="start" style="white-space: pre;" direction="ltr">- Mem.: 512MiB</text><text x="0" y="64" font-family="Helvetica, Segoe UI Emoji" font-size="16px" fill="#495057" text-anchor="start" style="white-space: pre;" direction="ltr">- 1 CPU</text></g><g stroke-linecap="round"><g transform="translate(756.4143122656856 410.1064033023381) rotate(0 21.57015153917223 16.217984789508876)" fill-rule="evenodd"><path d="M0 0 L10.77 32.44 L43.14 32.44 L0 0 L0 0" stroke="none" stroke-width="0" fill="#aecbfa" fill-rule="evenodd"></path><path d="M0 0 C3.33 10.02, 6.65 20.04, 10.77 32.44 M0 0 C2.36 7.11, 4.73 14.23, 10.77 32.44 M10.77 32.44 C19.71 32.44, 28.64 32.44, 43.14 32.44 M10.77 32.44 C21.83 32.44, 32.89 32.44, 43.14 32.44 M43.14 32.44 C28.38 21.34, 13.62 10.24, 0 0 M43.14 32.44 C30.61 23.02, 18.09 13.6, 0 0 M0 0 C0 0, 0 0, 0 0 M0 0 C0 0, 0 0, 0 0 M0 0 C0 0, 0 0, 0 0 M0 0 C0 0, 0 0, 0 0" stroke="transparent" stroke-width="1" fill="none"></path></g></g><g stroke-linecap="round"><g transform="translate(799.55461534403 442.5423728813562) rotate(0 -21.57015153917223 16.217985638117398)" fill-rule="evenodd"><path d="M0 0 L-32.37 0 L-43.14 32.44 L0 0 L0 0" stroke="none" stroke-width="0" fill="#4285f4" fill-rule="evenodd"></path><path d="M0 0 C-12.17 0, -24.34 0, -32.37 0 M0 0 C-12.46 0, -24.91 0, -32.37 0 M-32.37 0 C-34.57 6.63, -36.77 13.26, -43.14 32.44 M-32.37 0 C-35.82 10.41, -39.28 20.82, -43.14 32.44 M-43.14 32.44 C-30.4 22.85, -17.65 13.27, 0 0 M-43.14 32.44 C-25.98 19.53, -8.82 6.63, 0 0 M0 0 C0 0, 0 0, 0 0 M0 0 C0 0, 0 0, 0 0 M0 0 C0 0, 0 0, 0 0 M0 0 C0 0, 0 0, 0 0" stroke="transparent" stroke-width="1" fill="none"></path></g></g><g stroke-linecap="round"><g transform="translate(737.4971745377875 474.978344157591) rotate(0 9.458568863949495 -16.217985638117398)" fill-rule="evenodd"><path d="M0 0 L10.82 -5.4 L18.92 -32.44 L8.1 -32.44 L0 0 L0 0" stroke="none" stroke-width="0" fill="#4285f4" fill-rule="evenodd"></path><path d="M0 0 C3.79 -1.89, 7.58 -3.78, 10.82 -5.4 M0 0 C3.86 -1.92, 7.72 -3.85, 10.82 -5.4 M10.82 -5.4 C12.81 -12.04, 14.8 -18.68, 18.92 -32.44 M10.82 -5.4 C13.55 -14.52, 16.28 -23.65, 18.92 -32.44 M18.92 -32.44 C16.59 -32.44, 14.26 -32.44, 8.1 -32.44 M18.92 -32.44 C15.72 -32.44, 12.52 -32.44, 8.1 -32.44 M8.1 -32.44 C5.51 -22.07, 2.92 -11.71, 0 0 M8.1 -32.44 C5.01 -20.07, 1.92 -7.71, 0 0 M0 0 C0 0, 0 0, 0 0 M0 0 C0 0, 0 0, 0 0 M0 0 C0 0, 0 0, 0 0 M0 0 C0 0, 0 0, 0 0" stroke="transparent" stroke-width="1" fill="none"></path></g></g><g stroke-linecap="round"><g transform="translate(737.4971745377875 410.1064033023381) rotate(0 9.458568863949495 16.217984789508876)" fill-rule="evenodd"><path d="M0 0 L8.1 32.44 L18.92 32.44 L10.82 5.4 L0 0 L0 0" stroke="none" stroke-width="0" fill="#aecbfa" fill-rule="evenodd"></path><path d="M0 0 C1.66 6.66, 3.33 13.32, 8.1 32.44 M0 0 C2.62 10.5, 5.24 21, 8.1 32.44 M8.1 32.44 C12.29 32.44, 16.48 32.44, 18.92 32.44 M8.1 32.44 C12.39 32.44, 16.68 32.44, 18.92 32.44 M18.92 32.44 C16.05 22.85, 13.17 13.26, 10.82 5.4 M18.92 32.44 C16.59 24.66, 14.26 16.89, 10.82 5.4 M10.82 5.4 C7.11 3.55, 3.4 1.69, 0 0 M10.82 5.4 C7.76 3.87, 4.69 2.34, 0 0 M0 0 C0 0, 0 0, 0 0 M0 0 C0 0, 0 0, 0 0 M0 0 C0 0, 0 0, 0 0 M0 0 C0 0, 0 0, 0 0" stroke="transparent" stroke-width="1" fill="none"></path></g></g><g stroke-linecap="round"><g transform="translate(1111 423.67098994408394) rotate(0 99 -41.1245686947251)"><path d="M0 0 C33 -13.71, 165 -68.54, 198 -82.25 M0 0 C33 -13.71, 165 -68.54, 198 -82.25" stroke="#495057" stroke-width="2" fill="none"></path></g><g transform="translate(1111 423.67098994408394) rotate(0 99 -41.1245686947251)"><path d="M0 0 L10.12 -11.07 L14.99 0.64 L0 0" stroke="none" stroke-width="0" fill="#495057" fill-rule="evenodd"></path><path d="M0 0 C3.31 -3.62, 6.63 -7.25, 10.12 -11.07 M0 0 C3.28 -3.59, 6.57 -7.18, 10.12 -11.07 M10.12 -11.07 C11.12 -8.66, 12.12 -6.25, 14.99 0.64 M10.12 -11.07 C11.86 -6.9, 13.59 -2.72, 14.99 0.64 M14.99 0.64 C10.08 0.43, 5.18 0.22, 0 0 M14.99 0.64 C9.23 0.39, 3.47 0.15, 0 0 M0 0 C0 0, 0 0, 0 0 M0 0 C0 0, 0 0, 0 0" stroke="#495057" stroke-width="2" fill="none"></path></g><g transform="translate(1111 423.67098994408394) rotate(0 99 -41.1245686947251)"><path d="M198 -82.25 L187.88 -71.18 L183.01 -82.89 L198 -82.25" stroke="none" stroke-width="0" fill="#495057" fill-rule="evenodd"></path><path d="M198 -82.25 C194.69 -78.62, 191.37 -75, 187.88 -71.18 M198 -82.25 C194.72 -78.66, 191.43 -75.07, 187.88 -71.18 M187.88 -71.18 C186.88 -73.59, 185.88 -75.99, 183.01 -82.89 M187.88 -71.18 C186.14 -75.35, 184.41 -79.53, 183.01 -82.89 M183.01 -82.89 C187.92 -82.68, 192.82 -82.47, 198 -82.25 M183.01 -82.89 C188.77 -82.64, 194.53 -82.4, 198 -82.25 M198 -82.25 C198 -82.25, 198 -82.25, 198 -82.25 M198 -82.25 C198 -82.25, 198 -82.25, 198 -82.25" stroke="#495057" stroke-width="2" fill="none"></path></g></g><g stroke-linecap="round"><g transform="translate(1111 470.5) rotate(0 99 46.80708912331545)"><path d="M0 0 C33 15.6, 165 78.01, 198 93.61 M0 0 C33 15.6, 165 78.01, 198 93.61" stroke="#495057" stroke-width="2" fill="none"></path></g><g transform="translate(1111 470.5) rotate(0 99 46.80708912331545)"><path d="M0 0 L15 0.08 L9.58 11.54 L0 0" stroke="none" stroke-width="0" fill="#495057" fill-rule="evenodd"></path><path d="M0 0 C3.89 0.02, 7.77 0.04, 15 0.08 M0 0 C5.64 0.03, 11.27 0.06, 15 0.08 M15 0.08 C13.15 3.98, 11.31 7.89, 9.58 11.54 M15 0.08 C13.54 3.17, 12.08 6.26, 9.58 11.54 M9.58 11.54 C6.76 8.14, 3.93 4.74, 0 0 M9.58 11.54 C7.59 9.15, 5.6 6.75, 0 0 M0 0 C0 0, 0 0, 0 0 M0 0 C0 0, 0 0, 0 0" stroke="#495057" stroke-width="2" fill="none"></path></g><g transform="translate(1111 470.5) rotate(0 99 46.80708912331545)"><path d="M198 93.61 L183 93.53 L188.42 82.07 L198 93.61" stroke="none" stroke-width="0" fill="#495057" fill-rule="evenodd"></path><path d="M198 93.61 C194.11 93.59, 190.23 93.57, 183 93.53 M198 93.61 C192.36 93.58, 186.73 93.55, 183 93.53 M183 93.53 C184.85 89.63, 186.69 85.73, 188.42 82.07 M183 93.53 C184.46 90.44, 185.92 87.35, 188.42 82.07 M188.42 82.07 C191.24 85.48, 194.07 88.88, 198 93.61 M188.42 82.07 C190.41 84.47, 192.4 86.86, 198 93.61 M198 93.61 C198 93.61, 198 93.61, 198 93.61 M198 93.61 C198 93.61, 198 93.61, 198 93.61" stroke="#495057" stroke-width="2" fill="none"></path></g></g><g stroke-linecap="round"><g transform="translate(491 549.4562788490502) rotate(0 99 -56.45548695715729)"><path d="M0 0 C33 -18.82, 165 -94.09, 198 -112.91 M0 0 C33 -18.82, 165 -94.09, 198 -112.91" stroke="#495057" stroke-width="2" fill="none"></path></g><g transform="translate(491 549.4562788490502) rotate(0 99 -56.45548695715729)"><path d="M0 0 L8.67 -12.24 L14.95 -1.23 L0 0" stroke="none" stroke-width="0" fill="#495057" fill-rule="evenodd"></path><path d="M0 0 C2.95 -4.16, 5.9 -8.32, 8.67 -12.24 M0 0 C3.22 -4.55, 6.44 -9.09, 8.67 -12.24 M8.67 -12.24 C10.7 -8.68, 12.73 -5.11, 14.95 -1.23 M8.67 -12.24 C10.94 -8.25, 13.22 -4.26, 14.95 -1.23 M14.95 -1.23 C10.13 -0.83, 5.32 -0.44, 0 0 M14.95 -1.23 C10.83 -0.89, 6.72 -0.55, 0 0 M0 0 C0 0, 0 0, 0 0 M0 0 C0 0, 0 0, 0 0" stroke="#495057" stroke-width="2" fill="none"></path></g><g transform="translate(491 549.4562788490502) rotate(0 99 -56.45548695715729)"><path d="M198 -112.91 L189.33 -100.67 L183.05 -111.68 L198 -112.91" stroke="none" stroke-width="0" fill="#495057" fill-rule="evenodd"></path><path d="M198 -112.91 C195.05 -108.75, 192.1 -104.59, 189.33 -100.67 M198 -112.91 C194.78 -108.37, 191.56 -103.82, 189.33 -100.67 M189.33 -100.67 C187.3 -104.23, 185.27 -107.8, 183.05 -111.68 M189.33 -100.67 C187.06 -104.66, 184.78 -108.65, 183.05 -111.68 M183.05 -111.68 C187.87 -112.08, 192.68 -112.47, 198 -112.91 M183.05 -111.68 C187.17 -112.02, 191.28 -112.36, 198 -112.91 M198 -112.91 C198 -112.91, 198 -112.91, 198 -112.91 M198 -112.91 C198 -112.91, 198 -112.91, 198 -112.91" stroke="#495057" stroke-width="2" fill="none"></path></g></g><g stroke-linecap="round"><g transform="translate(491 609.5220751744125) rotate(0 99 55.52294992784638)"><path d="M0 0 C33 18.51, 165 92.54, 198 111.05 M0 0 C33 18.51, 165 92.54, 198 111.05" stroke="#495057" stroke-width="2" fill="none"></path></g><g transform="translate(491 609.5220751744125) rotate(0 99 55.52294992784638)"><path d="M0 0 L14.96 1.12 L8.76 12.18 L0 0" stroke="none" stroke-width="0" fill="#495057" fill-rule="evenodd"></path><path d="M0 0 C5.37 0.4, 10.74 0.8, 14.96 1.12 M0 0 C4.53 0.34, 9.06 0.68, 14.96 1.12 M14.96 1.12 C13.15 4.35, 11.34 7.57, 8.76 12.18 M14.96 1.12 C13.48 3.75, 12.01 6.38, 8.76 12.18 M8.76 12.18 C6.22 8.65, 3.69 5.13, 0 0 M8.76 12.18 C6.98 9.71, 5.21 7.24, 0 0 M0 0 C0 0, 0 0, 0 0 M0 0 C0 0, 0 0, 0 0" stroke="#495057" stroke-width="2" fill="none"></path></g><g transform="translate(491 609.5220751744125) rotate(0 99 55.52294992784638)"><path d="M198 111.05 L183.04 109.93 L189.24 98.87 L198 111.05" stroke="none" stroke-width="0" fill="#495057" fill-rule="evenodd"></path><path d="M198 111.05 C192.63 110.64, 187.26 110.24, 183.04 109.93 M198 111.05 C193.47 110.71, 188.94 110.37, 183.04 109.93 M183.04 109.93 C184.85 106.7, 186.66 103.47, 189.24 98.87 M183.04 109.93 C184.52 107.29, 185.99 104.66, 189.24 98.87 M189.24 98.87 C191.78 102.39, 194.31 105.92, 198 111.05 M189.24 98.87 C191.02 101.33, 192.79 103.8, 198 111.05 M198 111.05 C198 111.05, 198 111.05, 198 111.05 M198 111.05 C198 111.05, 198 111.05, 198 111.05" stroke="#495057" stroke-width="2" fill="none"></path></g></g><g stroke-linecap="round"><g transform="translate(910 610) rotate(0 0 -30)"><path d="M0 0 C0 -10, 0 -50, 0 -60 M0 0 C0 -10, 0 -50, 0 -60" stroke="#495057" stroke-width="2" fill="none"></path></g><g transform="translate(910 610) rotate(0 0 -30)"><path d="M0 0 L-6.34 -13.59 L6.34 -13.59 L0 0" stroke="none" stroke-width="0" fill="#495057" fill-rule="evenodd"></path><path d="M0 0 C-2.24 -4.81, -4.48 -9.62, -6.34 -13.59 M0 0 C-1.45 -3.11, -2.9 -6.22, -6.34 -13.59 M-6.34 -13.59 C-3.03 -13.59, 0.29 -13.59, 6.34 -13.59 M-6.34 -13.59 C-2.24 -13.59, 1.85 -13.59, 6.34 -13.59 M6.34 -13.59 C4.64 -9.95, 2.94 -6.31, 0 0 M6.34 -13.59 C4.35 -9.32, 2.35 -5.05, 0 0 M0 0 C0 0, 0 0, 0 0 M0 0 C0 0, 0 0, 0 0" stroke="#495057" stroke-width="2" fill="none"></path></g></g><g stroke-linecap="round" transform="translate(70 770) rotate(0 190 83.72881355932208)"><path d="M41.86 0 L338.14 0 L347.95 0.65 L356.45 2.62 L363.65 5.89 L369.53 10.47 L374.11 16.35 L377.38 23.55 L379.35 32.05 L380 41.86 L380 125.59 L379.35 135.41 L377.38 143.91 L374.11 151.1 L369.53 156.99 L363.65 161.57 L356.45 164.84 L347.95 166.8 L338.14 167.46 L41.86 167.46 L32.05 166.8 L23.55 164.84 L16.35 161.57 L10.47 156.99 L5.89 151.1 L2.62 143.91 L0.65 135.41 L0 125.59 L0 41.86 L0.65 32.05 L2.62 23.55 L5.89 16.35 L10.47 10.47 L16.35 5.89 L23.55 2.62 L32.05 0.65 L41.86 0" stroke="none" stroke-width="0" fill="#fff"></path><path d="M41.86 0 M41.86 0 C146.86 0, 251.85 0, 338.14 0 M41.86 0 C102.48 0, 163.1 0, 338.14 0 M338.14 0 C366.05 0, 380 13.95, 380 41.86 M338.14 0 C366.05 0, 380 13.95, 380 41.86 M380 41.86 C380 68, 380 94.13, 380 125.59 M380 41.86 C380 73.83, 380 105.79, 380 125.59 M380 125.59 C380 153.5, 366.05 167.46, 338.14 167.46 M380 125.59 C380 153.5, 366.05 167.46, 338.14 167.46 M338.14 167.46 C278.57 167.46, 219.01 167.46, 41.86 167.46 M338.14 167.46 C277.54 167.46, 216.94 167.46, 41.86 167.46 M41.86 167.46 C13.95 167.46, 0 153.5, 0 125.59 M41.86 167.46 C13.95 167.46, 0 153.5, 0 125.59 M0 125.59 C0 93.29, 0 61, 0 41.86 M0 125.59 C0 96.49, 0 67.39, 0 41.86 M0 41.86 C0 13.95, 13.95 0, 41.86 0 M0 41.86 C0 13.95, 13.95 0, 41.86 0" stroke="#000" stroke-width="2" fill="none"></path></g><g transform="translate(198.8135593220295 842.3809523809526) rotate(0 22.5 13)"><text x="0" y="20" font-family="Helvetica, Segoe UI Emoji" font-size="25.7627118644068px" fill="#495057" text-anchor="start" style="white-space: pre;" direction="ltr">Site</text></g><g stroke-linecap="round"><g transform="translate(102.20338983050351 816.1581920903953) rotate(0 37.570621468926674 37.57062146892656)" fill-rule="evenodd"><path d="M0 0 L75.14 0 L75.14 75.14 L0 75.14 L0 0" stroke="none" stroke-width="0" fill="#00000000" fill-rule="evenodd"></path><path d="M0 0 C16.48 0, 32.96 0, 75.14 0 M0 0 C20.74 0, 41.48 0, 75.14 0 M75.14 0 C75.14 25.67, 75.14 51.34, 75.14 75.14 M75.14 0 C75.14 25.71, 75.14 51.42, 75.14 75.14 M75.14 75.14 C53.32 75.14, 31.5 75.14, 0 75.14 M75.14 75.14 C58.33 75.14, 41.52 75.14, 0 75.14 M0 75.14 C0 49.66, 0 24.17, 0 0 M0 75.14 C0 53.41, 0 31.69, 0 0 M0 0 C0 0, 0 0, 0 0 M0 0 C0 0, 0 0, 0 0" stroke="#00000000" stroke-width="1" fill="none"></path></g></g><g stroke-linecap="round"><g transform="translate(114.72693066138527 834.9435028248585) rotate(0 21.916198245549595 18.78531227004055)" fill-rule="evenodd"><path d="M0 0 L56.36 0 L56.36 -6.26 L0 -6.26 L0 -6.26 L-2.43 -5.77 L-4.42 -4.42 L-5.77 -2.43 L-6.26 0 L-6.26 34.44 L-12.52 34.44 L-12.52 43.83 L31.31 43.83 L31.31 34.44 L0 34.44 L0 0 L0 0" stroke="none" stroke-width="0" fill="#4285f4" fill-rule="evenodd"></path><path d="M0 0 C21.69 0, 43.38 0, 56.36 0 M0 0 C11.52 0, 23.04 0, 56.36 0 M56.36 0 C56.36 -2.01, 56.36 -4.02, 56.36 -6.26 M56.36 0 C56.36 -1.85, 56.36 -3.7, 56.36 -6.26 M56.36 -6.26 C33.94 -6.26, 11.52 -6.26, 0 -6.26 M56.36 -6.26 C42.69 -6.26, 29.03 -6.26, 0 -6.26 M0 -6.26 C0 -6.26, 0 -6.26, 0 -6.26 M0 -6.26 C0 -6.26, 0 -6.26, 0 -6.26 M0 -6.26 C-0.57 -6.15, -1.13 -6.03, -2.43 -5.77 M0 -6.26 C-0.65 -6.13, -1.3 -6, -2.43 -5.77 M-2.43 -5.77 C-3.02 -5.37, -3.6 -4.98, -4.42 -4.42 M-2.43 -5.77 C-2.9 -5.45, -3.36 -5.14, -4.42 -4.42 M-4.42 -4.42 C-4.91 -3.71, -5.39 -2.99, -5.77 -2.43 M-4.42 -4.42 C-4.8 -3.86, -5.18 -3.29, -5.77 -2.43 M-5.77 -2.43 C-5.94 -1.56, -6.12 -0.7, -6.26 0 M-5.77 -2.43 C-5.89 -1.84, -6.01 -1.26, -6.26 0 M-6.26 0 C-6.26 9.71, -6.26 19.42, -6.26 34.44 M-6.26 0 C-6.26 8.28, -6.26 16.57, -6.26 34.44 M-6.26 34.44 C-8.66 34.44, -11.06 34.44, -12.52 34.44 M-6.26 34.44 C-8.05 34.44, -9.84 34.44, -12.52 34.44 M-12.52 34.44 C-12.52 36.64, -12.52 38.84, -12.52 43.83 M-12.52 34.44 C-12.52 37.53, -12.52 40.62, -12.52 43.83 M-12.52 43.83 C1.26 43.83, 15.03 43.83, 31.31 43.83 M-12.52 43.83 C-1.95 43.83, 8.62 43.83, 31.31 43.83 M31.31 43.83 C31.31 41.15, 31.31 38.47, 31.31 34.44 M31.31 43.83 C31.31 41.18, 31.31 38.54, 31.31 34.44 M31.31 34.44 C19.66 34.44, 8.02 34.44, 0 34.44 M31.31 34.44 C22.73 34.44, 14.14 34.44, 0 34.44 M0 34.44 C0 26.29, 0 18.13, 0 0 M0 34.44 C0 25.01, 0 15.57, 0 0 M0 0 C0 0, 0 0, 0 0 M0 0 C0 0, 0 0, 0 0 M0 0 C0 0, 0 0, 0 0 M0 0 C0 0, 0 0, 0 0" stroke="#00000000" stroke-width="1" fill="none"></path></g></g><g stroke-linecap="round"><g transform="translate(174.21375037586859 841.2052737521583) rotate(0 -9.392657414668292 18.78531175818148)" fill-rule="evenodd"><path d="M0 0 L-18.79 0 L-18.79 0 L-21 0.92 L-21.92 3.13 L-21.92 34.44 L-21.92 34.44 L-21 36.65 L-18.79 37.57 L0 37.57 L0 37.57 L2.21 36.65 L3.13 34.44 L3.13 3.13 L3.13 3.13 L2.21 0.92 L0 0 L0 0" stroke="none" stroke-width="0" fill="#4285f4" fill-rule="evenodd"></path><path d="M0 0 C-6.7 0, -13.4 0, -18.79 0 M0 0 C-4.61 0, -9.23 0, -18.79 0 M-18.79 0 C-18.79 0, -18.79 0, -18.79 0 M-18.79 0 C-18.79 0, -18.79 0, -18.79 0 M-18.79 0 C-19.44 0.27, -20.09 0.54, -21 0.92 M-18.79 0 C-19.49 0.29, -20.2 0.59, -21 0.92 M-21 0.92 C-21.35 1.76, -21.7 2.61, -21.92 3.13 M-21 0.92 C-21.18 1.37, -21.37 1.82, -21.92 3.13 M-21.92 3.13 C-21.92 11.95, -21.92 20.76, -21.92 34.44 M-21.92 3.13 C-21.92 15.08, -21.92 27.03, -21.92 34.44 M-21.92 34.44 C-21.92 34.44, -21.92 34.44, -21.92 34.44 M-21.92 34.44 C-21.92 34.44, -21.92 34.44, -21.92 34.44 M-21.92 34.44 C-21.65 35.09, -21.38 35.73, -21 36.65 M-21.92 34.44 C-21.6 35.21, -21.28 35.98, -21 36.65 M-21 36.65 C-20.54 36.84, -20.07 37.03, -18.79 37.57 M-21 36.65 C-20.15 37, -19.3 37.36, -18.79 37.57 M-18.79 37.57 C-11.34 37.57, -3.9 37.57, 0 37.57 M-18.79 37.57 C-13.8 37.57, -8.82 37.57, 0 37.57 M0 37.57 C0 37.57, 0 37.57, 0 37.57 M0 37.57 C0 37.57, 0 37.57, 0 37.57 M0 37.57 C0.57 37.34, 1.13 37.1, 2.21 36.65 M0 37.57 C0.48 37.37, 0.95 37.17, 2.21 36.65 M2.21 36.65 C2.49 35.98, 2.77 35.3, 3.13 34.44 M2.21 36.65 C2.56 35.82, 2.9 35, 3.13 34.44 M3.13 34.44 C3.13 27.39, 3.13 20.33, 3.13 3.13 M3.13 34.44 C3.13 27.81, 3.13 21.18, 3.13 3.13 M3.13 3.13 C3.13 3.13, 3.13 3.13, 3.13 3.13 M3.13 3.13 C3.13 3.13, 3.13 3.13, 3.13 3.13 M3.13 3.13 C2.9 2.58, 2.67 2.02, 2.21 0.92 M3.13 3.13 C2.85 2.47, 2.58 1.8, 2.21 0.92 M2.21 0.92 C1.76 0.73, 1.31 0.54, 0 0 M2.21 0.92 C1.36 0.57, 0.52 0.22, 0 0 M0 0 C0 0, 0 0, 0 0 M0 0 C0 0, 0 0, 0 0 M0 0 C0 0, 0 0, 0 0 M0 0 C0 0, 0 0, 0 0" stroke="#00000000" stroke-width="1" fill="none"></path></g></g><g stroke-linecap="round"><g transform="translate(171.0828679833694 869.3832419012903) rotate(0 -6.261772974736232 -10.958098610915727)" fill-rule="evenodd"><path d="M0 0 L-12.52 0 L-12.52 -21.92 L0 -21.92 L0 0" stroke="none" stroke-width="0" fill="#fff" fill-rule="evenodd"></path><path d="M0 0 C-4.05 0, -8.11 0, -12.52 0 M0 0 C-4.85 0, -9.7 0, -12.52 0 M-12.52 0 C-12.52 -8.7, -12.52 -17.39, -12.52 -21.92 M-12.52 0 C-12.52 -7.77, -12.52 -15.54, -12.52 -21.92 M-12.52 -21.92 C-8.92 -21.92, -5.32 -21.92, 0 -21.92 M-12.52 -21.92 C-8.23 -21.92, -3.93 -21.92, 0 -21.92 M0 -21.92 C0 -15.71, 0 -9.5, 0 0 M0 -21.92 C0 -14.3, 0 -6.69, 0 0 M0 0 C0 0, 0 0, 0 0 M0 0 C0 0, 0 0, 0 0" stroke="#00000000" stroke-width="1" fill="none"></path></g></g><g stroke-linecap="round"><g transform="translate(270 750) rotate(0 0 -40)"><path d="M0 0 C0 -13.33, 0 -66.67, 0 -80 M0 0 C0 -13.33, 0 -66.67, 0 -80" stroke="#495057" stroke-width="2" fill="none"></path></g><g transform="translate(270 750) rotate(0 0 -40)"><path d="M0 0 L-6.34 -13.59 L6.34 -13.59 L0 0" stroke="none" stroke-width="0" fill="#495057" fill-rule="evenodd"></path><path d="M0 0 C-2.06 -4.41, -4.11 -8.82, -6.34 -13.59 M0 0 C-1.3 -2.8, -2.61 -5.59, -6.34 -13.59 M-6.34 -13.59 C-1.82 -13.59, 2.7 -13.59, 6.34 -13.59 M-6.34 -13.59 C-2.19 -13.59, 1.95 -13.59, 6.34 -13.59 M6.34 -13.59 C3.9 -8.37, 1.47 -3.15, 0 0 M6.34 -13.59 C4.45 -9.54, 2.55 -5.48, 0 0 M0 0 C0 0, 0 0, 0 0 M0 0 C0 0, 0 0, 0 0" stroke="#495057" stroke-width="2" fill="none"></path></g><g transform="translate(270 750) rotate(0 0 -40)"><path d="M0 -80 L6.34 -66.41 L-6.34 -66.41 L0 -80" stroke="none" stroke-width="0" fill="#495057" fill-rule="evenodd"></path><path d="M0 -80 C2.06 -75.59, 4.11 -71.18, 6.34 -66.41 M0 -80 C1.3 -77.2, 2.61 -74.41, 6.34 -66.41 M6.34 -66.41 C1.82 -66.41, -2.7 -66.41, -6.34 -66.41 M6.34 -66.41 C2.19 -66.41, -1.95 -66.41, -6.34 -66.41 M-6.34 -66.41 C-3.9 -71.63, -1.47 -76.85, 0 -80 M-6.34 -66.41 C-4.45 -70.46, -2.55 -74.52, 0 -80 M0 -80 C0 -80, 0 -80, 0 -80 M0 -80 C0 -80, 0 -80, 0 -80" stroke="#495057" stroke-width="2" fill="none"></path></g></g><g transform="translate(70 50) rotate(0 606.5 33)"><text x="0" y="53" font-family="Helvetica, Segoe UI Emoji" font-size="57.02394489810341px" fill="#7fabf7" text-anchor="start" style="white-space: pre;" direction="ltr">Infra para WordPress na Google Cloud Platform</text></g><g stroke-linecap="round" transform="translate(190 630) rotate(0 11.66666666666697 11.666666666666941)"><path d="M23.33 11.67 C23.33 12.34, 23.27 13.03, 23.16 13.69 C23.04 14.36, 22.86 15.02, 22.63 15.66 C22.4 16.29, 22.11 16.92, 21.77 17.5 C21.43 18.08, 21.04 18.65, 20.6 19.17 C20.17 19.68, 19.68 20.17, 19.17 20.6 C18.65 21.04, 18.08 21.43, 17.5 21.77 C16.92 22.11, 16.29 22.4, 15.66 22.63 C15.02 22.86, 14.36 23.04, 13.69 23.16 C13.03 23.27, 12.34 23.33, 11.67 23.33 C10.99 23.33, 10.31 23.27, 9.64 23.16 C8.98 23.04, 8.31 22.86, 7.68 22.63 C7.04 22.4, 6.42 22.11, 5.83 21.77 C5.25 21.43, 4.68 21.04, 4.17 20.6 C3.65 20.17, 3.16 19.68, 2.73 19.17 C2.3 18.65, 1.9 18.08, 1.56 17.5 C1.23 16.92, 0.93 16.29, 0.7 15.66 C0.47 15.02, 0.29 14.36, 0.18 13.69 C0.06 13.03, 0 12.34, 0 11.67 C0 10.99, 0.06 10.31, 0.18 9.64 C0.29 8.98, 0.47 8.31, 0.7 7.68 C0.93 7.04, 1.23 6.42, 1.56 5.83 C1.9 5.25, 2.3 4.68, 2.73 4.17 C3.16 3.65, 3.65 3.16, 4.17 2.73 C4.68 2.3, 5.25 1.9, 5.83 1.56 C6.42 1.23, 7.04 0.93, 7.68 0.7 C8.31 0.47, 8.98 0.29, 9.64 0.18 C10.31 0.06, 10.99 0, 11.67 0 C12.34 0, 13.03 0.06, 13.69 0.18 C14.36 0.29, 15.02 0.47, 15.66 0.7 C16.29 0.93, 16.92 1.23, 17.5 1.56 C18.08 1.9, 18.65 2.3, 19.17 2.73 C19.68 3.16, 20.17 3.65, 20.6 4.17 C21.04 4.68, 21.43 5.25, 21.77 5.83 C22.11 6.42, 22.4 7.04, 22.63 7.68 C22.86 8.31, 23.04 8.98, 23.16 9.64 C23.27 10.31, 23.3 11.33, 23.33 11.67 C23.36 12, 23.36 11.33, 23.33 11.67" stroke="none" stroke-width="0" fill="#4c6ef5"></path><path d="M23.33 11.67 C23.33 12.34, 23.27 13.03, 23.16 13.69 C23.04 14.36, 22.86 15.02, 22.63 15.66 C22.4 16.29, 22.11 16.92, 21.77 17.5 C21.43 18.08, 21.04 18.65, 20.6 19.17 C20.17 19.68, 19.68 20.17, 19.17 20.6 C18.65 21.04, 18.08 21.43, 17.5 21.77 C16.92 22.11, 16.29 22.4, 15.66 22.63 C15.02 22.86, 14.36 23.04, 13.69 23.16 C13.03 23.27, 12.34 23.33, 11.67 23.33 C10.99 23.33, 10.31 23.27, 9.64 23.16 C8.98 23.04, 8.31 22.86, 7.68 22.63 C7.04 22.4, 6.42 22.11, 5.83 21.77 C5.25 21.43, 4.68 21.04, 4.17 20.6 C3.65 20.17, 3.16 19.68, 2.73 19.17 C2.3 18.65, 1.9 18.08, 1.56 17.5 C1.23 16.92, 0.93 16.29, 0.7 15.66 C0.47 15.02, 0.29 14.36, 0.18 13.69 C0.06 13.03, 0 12.34, 0 11.67 C0 10.99, 0.06 10.31, 0.18 9.64 C0.29 8.98, 0.47 8.31, 0.7 7.68 C0.93 7.04, 1.23 6.42, 1.56 5.83 C1.9 5.25, 2.3 4.68, 2.73 4.17 C3.16 3.65, 3.65 3.16, 4.17 2.73 C4.68 2.3, 5.25 1.9, 5.83 1.56 C6.42 1.23, 7.04 0.93, 7.68 0.7 C8.31 0.47, 8.98 0.29, 9.64 0.18 C10.31 0.06, 10.99 0, 11.67 0 C12.34 0, 13.03 0.06, 13.69 0.18 C14.36 0.29, 15.02 0.47, 15.66 0.7 C16.29 0.93, 16.92 1.23, 17.5 1.56 C18.08 1.9, 18.65 2.3, 19.17 2.73 C19.68 3.16, 20.17 3.65, 20.6 4.17 C21.04 4.68, 21.43 5.25, 21.77 5.83 C22.11 6.42, 22.4 7.04, 22.63 7.68 C22.86 8.31, 23.04 8.98, 23.16 9.64 C23.27 10.31, 23.3 11.33, 23.33 11.67 C23.36 12, 23.36 11.33, 23.33 11.67" stroke="transparent" stroke-width="1" fill="none"></path></g><g transform="translate(195.8333333333394 635.8333333333333) rotate(0 6.6354166666667425 7.000000000000142)"><text x="6.6354166666668215" y="10.000000000000329" font-family="Helvetica, Segoe UI Emoji" font-size="13.841807909604816px" fill="#fff" text-anchor="middle" style="white-space: pre;" direction="ltr">IP</text></g><g stroke-linecap="round" transform="translate(230 630) rotate(0 32.08333333333417 11.666666666666913)"><path d="M5.83 0 L60.89 0.36 L62.71 1.46 L63.8 3.28 L63.8 20.05 L62.71 21.88 L58.33 23.33 L3.28 22.97 L1.46 21.88 L0.36 20.05 L0 5.83 L1.46 1.46 L5.83 0" stroke="none" stroke-width="0" fill="#4c6ef5"></path><path d="M5.83 0 M5.83 0 C21.34 0, 36.85 0, 58.33 0 M5.83 0 C19.9 0, 33.96 0, 58.33 0 M58.33 0 C62.22 0, 64.17 1.94, 64.17 5.83 M58.33 0 C62.22 0, 64.17 1.94, 64.17 5.83 M64.17 5.83 C64.17 8.66, 64.17 11.49, 64.17 17.5 M64.17 5.83 C64.17 9.14, 64.17 12.44, 64.17 17.5 M64.17 17.5 C64.17 21.39, 62.22 23.33, 58.33 23.33 M64.17 17.5 C64.17 21.39, 62.22 23.33, 58.33 23.33 M58.33 23.33 C38.26 23.33, 18.19 23.33, 5.83 23.33 M58.33 23.33 C47.51 23.33, 36.69 23.33, 5.83 23.33 M5.83 23.33 C1.94 23.33, 0 21.39, 0 17.5 M5.83 23.33 C1.94 23.33, 0 21.39, 0 17.5 M0 17.5 C0 14.39, 0 11.28, 0 5.83 M0 17.5 C0 13.95, 0 10.4, 0 5.83 M0 5.83 C0 1.94, 1.94 0, 5.83 0 M0 5.83 C0 1.94, 1.94 0, 5.83 0" stroke="#fff" stroke-width="1" fill="none"></path></g><g transform="translate(235.83333333333485 635.8333333333333) rotate(0 25.95833333333394 7.0000000000001705)"><text x="25.958333333333922" y="10.000000000000329" font-family="Helvetica, Segoe UI Emoji" font-size="13.841807909604812px" fill="#fff" text-anchor="middle" style="white-space: pre;" direction="ltr">Domínio</text></g><g stroke-linecap="round" transform="translate(1290 530) rotate(0 29.16666666666731 11.666666666666941)"><path d="M5.83 0 L55.05 0.36 L56.88 1.46 L57.97 3.28 L57.97 20.05 L56.88 21.88 L52.5 23.33 L3.28 22.97 L1.46 21.88 L0.36 20.05 L0 5.83 L1.46 1.46 L5.83 0" stroke="none" stroke-width="0" fill="#4c6ef5"></path><path d="M5.83 0 M5.83 0 C22.38 0, 38.93 0, 52.5 0 M5.83 0 C21.61 0, 37.39 0, 52.5 0 M52.5 0 C56.39 0, 58.33 1.94, 58.33 5.83 M52.5 0 C56.39 0, 58.33 1.94, 58.33 5.83 M58.33 5.83 C58.33 9.84, 58.33 13.84, 58.33 17.5 M58.33 5.83 C58.33 9.18, 58.33 12.53, 58.33 17.5 M58.33 17.5 C58.33 21.39, 56.39 23.33, 52.5 23.33 M58.33 17.5 C58.33 21.39, 56.39 23.33, 52.5 23.33 M52.5 23.33 C36.29 23.33, 20.08 23.33, 5.83 23.33 M52.5 23.33 C34.01 23.33, 15.53 23.33, 5.83 23.33 M5.83 23.33 C1.94 23.33, 0 21.39, 0 17.5 M5.83 23.33 C1.94 23.33, 0 21.39, 0 17.5 M0 17.5 C0 14.09, 0 10.67, 0 5.83 M0 17.5 C0 14.5, 0 11.5, 0 5.83 M0 5.83 C0 1.94, 1.94 0, 5.83 0 M0 5.83 C0 1.94, 1.94 0, 5.83 0" stroke="#fff" stroke-width="1" fill="none"></path></g><g transform="translate(1294.375 535.8333333333333) rotate(0 23.916666666667197 7.0000000000001705)"><text x="23.91666666666721" y="10.000000000000329" font-family="Helvetica, Segoe UI Emoji" font-size="13.841807909604809px" fill="#fff" text-anchor="middle" style="white-space: pre;" direction="ltr">Usuário</text></g><g stroke-linecap="round" transform="translate(1290 310) rotate(0 29.16666666666731 11.666666666666927)"><path d="M5.83 0 L55.05 0.36 L56.88 1.46 L57.97 3.28 L57.97 20.05 L56.88 21.88 L52.5 23.33 L3.28 22.97 L1.46 21.88 L0.36 20.05 L0 5.83 L1.46 1.46 L5.83 0" stroke="none" stroke-width="0" fill="#4c6ef5"></path><path d="M5.83 0 M5.83 0 C19.59 0, 33.35 0, 52.5 0 M5.83 0 C24.4 0, 42.96 0, 52.5 0 M52.5 0 C56.39 0, 58.33 1.94, 58.33 5.83 M52.5 0 C56.39 0, 58.33 1.94, 58.33 5.83 M58.33 5.83 C58.33 8.71, 58.33 11.58, 58.33 17.5 M58.33 5.83 C58.33 8.64, 58.33 11.45, 58.33 17.5 M58.33 17.5 C58.33 21.39, 56.39 23.33, 52.5 23.33 M58.33 17.5 C58.33 21.39, 56.39 23.33, 52.5 23.33 M52.5 23.33 C34.07 23.33, 15.64 23.33, 5.83 23.33 M52.5 23.33 C41.63 23.33, 30.77 23.33, 5.83 23.33 M5.83 23.33 C1.94 23.33, 0 21.39, 0 17.5 M5.83 23.33 C1.94 23.33, 0 21.39, 0 17.5 M0 17.5 C0 14.16, 0 10.83, 0 5.83 M0 17.5 C0 14.06, 0 10.63, 0 5.83 M0 5.83 C0 1.94, 1.94 0, 5.83 0 M0 5.83 C0 1.94, 1.94 0, 5.83 0" stroke="#fff" stroke-width="1" fill="none"></path></g><g transform="translate(1294.375 315.83333333333326) rotate(0 23.916666666667197 7.0000000000001705)"><text x="23.91666666666721" y="10.000000000000329" font-family="Helvetica, Segoe UI Emoji" font-size="13.841807909604809px" fill="#fff" text-anchor="middle" style="white-space: pre;" direction="ltr">Usuário</text></g><g stroke-linecap="round"><g transform="translate(1530 670) rotate(0 -530 100)"><path d="M0 0 C0 77.44, 0 154.89, 0 200 M0 0 C0 79.37, 0 158.74, 0 200 M0 200 C-375.85 200, -751.71 200, -1060 200 M0 200 C-304.73 200, -609.45 200, -1060 200" stroke="#495057" stroke-width="2" fill="none"></path></g><g transform="translate(1530 670) rotate(0 -530 100)"><path d="M-1060 200 L-1046.41 193.66 L-1046.41 206.34 L-1060 200" stroke="none" stroke-width="0" fill="#495057" fill-rule="evenodd"></path><path d="M-1060 200 C-1054.74 197.55, -1049.47 195.09, -1046.41 193.66 M-1060 200 C-1054.61 197.48, -1049.21 194.97, -1046.41 193.66 M-1046.41 193.66 C-1046.41 198.16, -1046.41 202.65, -1046.41 206.34 M-1046.41 193.66 C-1046.41 197.31, -1046.41 200.95, -1046.41 206.34 M-1046.41 206.34 C-1051.07 204.16, -1055.73 201.99, -1060 200 M-1046.41 206.34 C-1050.26 204.54, -1054.11 202.75, -1060 200 M-1060 200 C-1060 200, -1060 200, -1060 200 M-1060 200 C-1060 200, -1060 200, -1060 200" stroke="#495057" stroke-width="2" fill="none"></path></g></g><g stroke-linecap="round" transform="translate(310 630) rotate(0 50 11.666666666666941)"><path d="M5.83 0 L96.72 0.36 L98.54 1.46 L99.64 3.28 L99.64 20.05 L98.54 21.88 L96.72 22.97 L94.17 23.33 L3.28 22.97 L1.46 21.88 L0.36 20.05 L0 5.83 L1.46 1.46 L5.83 0" stroke="none" stroke-width="0" fill="#4c6ef5"></path><path d="M5.83 0 M5.83 0 C35.7 0, 65.56 0, 94.17 0 M5.83 0 C30.15 0, 54.46 0, 94.17 0 M94.17 0 C98.06 0, 100 1.94, 100 5.83 M94.17 0 C98.06 0, 100 1.94, 100 5.83 M100 5.83 C100 9.18, 100 12.53, 100 17.5 M100 5.83 C100 9.97, 100 14.1, 100 17.5 M100 17.5 C100 21.39, 98.06 23.33, 94.17 23.33 M100 17.5 C100 21.39, 98.06 23.33, 94.17 23.33 M94.17 23.33 C59.17 23.33, 24.18 23.33, 5.83 23.33 M94.17 23.33 C66.6 23.33, 39.03 23.33, 5.83 23.33 M5.83 23.33 C1.94 23.33, 0 21.39, 0 17.5 M5.83 23.33 C1.94 23.33, 0 21.39, 0 17.5 M0 17.5 C0 14.5, 0 11.5, 0 5.83 M0 17.5 C0 15.15, 0 12.81, 0 5.83 M0 5.83 C0 1.94, 1.94 0, 5.83 0 M0 5.83 C0 1.94, 1.94 0, 5.83 0" stroke="#fff" stroke-width="1" fill="none"></path></g><g transform="translate(328.2916666666688 635.8333333333333) rotate(0 33.5 7.499999999999972)"><text x="33.5" y="11" font-family="Helvetica, Segoe UI Emoji" font-size="13.841807909604812px" fill="#fff" text-anchor="middle" style="white-space: pre;" direction="ltr">Certificado</text></g></svg>